<?xml version="1.0" encoding="UTF-8"?><svg id="Layer_1" xmlns="http://www.w3.org/2000/svg" width="512" height="512" viewBox="0 0 512 512"><defs><style>.cls-1{fill:#cbedbc;}.cls-2{fill:#edf1bd;}.cls-3{fill:#78472a;}.cls-4{fill:#a95133;}.cls-5{fill:#e9eeaf;}.cls-6{fill:#dcac76;}.cls-7{fill:#f9f9c4;}.cls-8{fill:#222c4e;}.cls-9{fill:#6b3d21;}.cls-10{fill:#966341;}.cls-11{fill:#f9f9b9;}.cls-12{fill:#d09c6a;}.cls-13{fill:#d0efbb;}.cls-14{fill:#6e4023;}.cls-15{fill:#d0f0bc;}.cls-16{fill:#af5636;}.cls-17{fill:#bfebbe;}.cls-18{fill:#faee9a;}.cls-19{fill:#f8f6bd;}.cls-20{fill:#ec9264;}.cls-21{fill:#835233;}.cls-22{fill:#fcf1be;}.cls-23{fill:#dba971;}.cls-24{fill:#3f4c76;}.cls-25{fill:#f0cb6d;}.cls-26{fill:#f9faf9;}.cls-27{fill:#c06a44;}.cls-28{fill:#c7edbf;}.cls-29{fill:#6f4326;}.cls-30{fill:#eec461;}.cls-31{fill:#cef0be;}.cls-32{fill:#a36d3d;}.cls-33{fill:#afe7c6;}.cls-34{fill:#e3a03a;}.cls-35{fill:#f5da8c;}.cls-36{fill:#b05230;}.cls-37{fill:#704424;}.cls-38{fill:#d67551;}.cls-39{fill:#bcbcdc;}.cls-40{fill:#c2ebbd;}.cls-41{fill:#c5edbf;}.cls-42{fill:#030303;}.cls-43{fill:#d77853;}.cls-44{fill:#e68d60;}.cls-45{fill:#996741;}.cls-46{fill:#d8eebc;}.cls-47{fill:#ebf2af;}.cls-48{fill:#e5f0c2;}.cls-49{fill:#414e77;}.cls-50{fill:#754827;}.cls-51{fill:#b38052;}.cls-52{fill:#da7e5a;}.cls-53{fill:#da7b57;}.cls-54{fill:#d19d6b;}.cls-55{fill:#a86f36;}.cls-56{fill:#dd7d59;}.cls-57{fill:#dc7a59;}.cls-58{fill:#e8ab4d;}.cls-59{fill:#916038;}.cls-60{fill:#def1bd;}.cls-61{fill:#e9ca7c;}.cls-62{fill:#d3edbe;}.cls-63{fill:#e2a848;}.cls-64{fill:#6b3d23;}.cls-65{fill:#ecefb2;}.cls-66{fill:#f6d05f;}.cls-67{fill:#fded9e;}.cls-68{fill:#cbf0bc;}.cls-69{fill:#c7edbd;}.cls-70{fill:#b27d50;}.cls-71{fill:#6e4123;}.cls-72{fill:#eef2f4;}.cls-73{fill:#e58b5e;}.cls-74{fill:#c99456;}.cls-75{fill:#efbe5a;}.cls-76{fill:#0a1435;}.cls-77{fill:#efa170;}.cls-78{fill:#f5f3bd;}.cls-79{fill:#d87a55;}.cls-80{fill:#e3785b;}.cls-81{fill:#fdeb7a;}.cls-82{fill:#b27e51;}.cls-83{fill:#fded7f;}.cls-84{fill:#8c4328;}.cls-85{fill:#2f385c;}.cls-86{fill:#d9a65d;}.cls-87{fill:#e3ad4f;}.cls-88{fill:#f3c95a;}.cls-89{fill:#6d4023;}.cls-90{fill:#d09b5d;}.cls-91{fill:#ae7437;}.cls-92{fill:#588898;}.cls-93{fill:#ab5334;}.cls-94{fill:#deefb2;}.cls-95{fill:#afe8c4;}.cls-96{fill:#eceda6;}.cls-97{fill:#b25330;}.cls-98{fill:#f6e5ab;}.cls-99{fill:#ba7f36;}.cls-100{fill:#f8ecae;}.cls-101{fill:#f7f2a3;}.cls-102{fill:#e4b24e;}.cls-103{fill:#588696;}.cls-104{fill:#d3f0be;}.cls-105{fill:#8a4226;}.cls-106{fill:#c7c4de;}.cls-107{fill:#eac179;}.cls-108{fill:#3e4d76;}.cls-109{fill:#b27f52;}.cls-110{fill:#78492b;}.cls-111{fill:#3e4d77;}.cls-112{fill:#835435;}.cls-113{fill:#996645;}.cls-114{fill:#212b4d;}.cls-115{fill:#d9a572;}.cls-116{fill:#e5f1af;}.cls-117{fill:#eb9163;}.cls-118{fill:#132540;}.cls-119{fill:#ecf0c0;}.cls-120{fill:#e7ebf2;}.cls-121{fill:#9c6843;}.cls-122{fill:#e1af77;}.cls-123{fill:#da7c58;}.cls-124{fill:#e9b751;}.cls-125{fill:#f5de93;}.cls-126{fill:#b17d52;}.cls-127{fill:#daefbe;}.cls-128{fill:#faee99;}.cls-129{fill:#946440;}.cls-130{fill:#212b4c;}.cls-131{fill:#29516c;}.cls-132{fill:#906140;}.cls-133{fill:#d0efbc;}.cls-134{fill:#fdee89;}.cls-135{fill:#815334;}.cls-136{fill:#d2efbc;}.cls-137{fill:#e7ad4b;}.cls-138{fill:#c7edbc;}.cls-139{fill:#d89e4b;}.cls-140{fill:#984526;}.cls-141{fill:#f4f1be;}.cls-142{fill:#faefb4;}.cls-143{fill:#d1efbb;}.cls-144{fill:#b98144;}.cls-145{fill:#d1f0bf;}.cls-146{fill:#dff2bb;}.cls-147{fill:#d09d6c;}.cls-148{fill:#f5f3a8;}.cls-149{fill:#89351e;}.cls-150{fill:#b58255;}.cls-151{fill:#d2a16f;}.cls-152{fill:#3e4e77;}.cls-153{fill:#835334;}.cls-154{fill:#ade7c7;}.cls-155{fill:#e2f1b8;}.cls-156{fill:#d0674c;}.cls-157{fill:#cdedbd;}.cls-158{fill:#825131;}.cls-159{fill:#fdef8e;}.cls-160{fill:#edbb51;}.cls-161{fill:#e6a948;}.cls-162{fill:#d2f1be;}.cls-163{fill:#86361f;}.cls-164{fill:#ae7331;}.cls-165{fill:#254d69;}.cls-166{fill:#040304;}.cls-167{fill:#b17538;}.cls-168{fill:#d3f1bc;}.cls-169{fill:#f3a172;}.cls-170{fill:#faeca5;}.cls-171{fill:#a64f31;}.cls-172{fill:#efbb4c;}.cls-173{fill:#c4883e;}.cls-174{fill:#fbe478;}.cls-175{fill:#6a3d22;}.cls-176{fill:#da7b56;}.cls-177{fill:#e7ac4c;}.cls-178{fill:#cf9a4d;}.cls-179{fill:#f3a171;}.cls-180{fill:#f5f2bc;}.cls-181{fill:#c9edbd;}.cls-182{fill:#d0f1bc;}.cls-183{fill:#b68244;}.cls-184{fill:#fde67b;}.cls-185{fill:#212b4e;}.cls-186{fill:#2e375b;}.cls-187{fill:#fdef86;}.cls-188{fill:#e7f0aa;}.cls-189{fill:#936542;}.cls-190{fill:#f6e599;}.cls-191{fill:#f6e099;}.cls-192{fill:#fbf9c4;}.cls-193{fill:#2f375c;}.cls-194{fill:#0b1434;}.cls-195{fill:#f5f7c3;}.cls-196{fill:#c7cae7;}.cls-197{fill:#f9f7bf;}.cls-198{fill:#dbefbb;}.cls-199{fill:#df825e;}.cls-200{fill:#3f4e79;}.cls-201{fill:#d4a26f;}.cls-202{fill:#b48153;}.cls-203{fill:#f9ae7f;}.cls-204{fill:#3c4c77;}.cls-205{fill:#ab6f33;}.cls-206{fill:#d7a46f;}.cls-207{fill:#d6a372;}.cls-208{fill:#fafbfa;}.cls-209{fill:#f6f5ba;}.cls-210{fill:#132742;}.cls-211{fill:#deefb3;}.cls-212{fill:#976742;}.cls-213{fill:#714223;}.cls-214{fill:#c1c2dc;}.cls-215{fill:#f1c15f;}.cls-216{fill:#c69354;}.cls-217{fill:#e3f7ec;}</style></defs><rect class="cls-154" x="0" width="511.51" height="511.51" rx="120" ry="120"/><polygon class="cls-217" points="511.5 0 512 0 512 512 0 512 0 511.5 511.51 511.51 511.5 0"/><path class="cls-186" d="M413.38,396.38l.42,2.73-4.16,13.25c1.42-4.34,3.12-8.56,4.89-12.77.17-.4.54-.72.95-1.06s.87-.62,1.34-.87l2.05.67,6.91,11.42c4.07,10.66,8.04,21.35,11.92,32.07l-.9,1.13c-33.7,27.61-88.16,51.71-131.27,56.54,3.92-7.15,8.55-13.95,13.88-20.4,9.35-12.88,18.46-26.13,26.72-39.53.35-.57.52-2.49-.05-3.06l-15.52-15.2.22-1.54.02-1.33,21.12-6.73c1.66-.64,3.17-1.52,4.54-2.65-.97-7.66-2.46-15.2-4.48-22.63l.58-1.91c9.86.14,19.72.02,29.57-.37l1.3-.82c.31-.4.79-1,1.15-.89,8.09,2.56,21.01,8.35,28.51,12.45l.3,1.52Z"/><path class="cls-186" d="M167.9,404.01c1.25.88,2.51,1.82,3.76,2.84l24.03,7.21c2.06,1.59,1.2,2.67-.41,4.28-6.47,5.81-12.76,11.76-18.88,17.87-.44,1.41-1.19,2.17-2.26,2.27.9,5.39,2.56,10.52,4.96,15.39,8.01,13.22,16.03,26.4,24.05,39.54.2,1.21-.62,1.74-2.47,1.57-25.96-5.82-51.14-15.16-74.71-28.12-11.99-6.59-23.24-13.51-33.39-22l-.87-1.63c3.14-14.3,8.34-27.65,15.61-40.04,1.26-2.49,2.83-3.68,4.72-3.58l1.38.07,6.21,15.45-5.09-15.47.68-2.07c.37-.53.76-1.04,1.21-1.49s.88-.83,1.4-1.1c3.93-2,15.75-7.31,19.32-7.42.63-.02,1.27.04,1.9.13l4.74-.41c8.74-.99,17.45-1.71,26.15-2.19l.51,2.37c-1.4,5.48-2.25,11-2.55,16.55Z"/><path class="cls-193" d="M215.46,361.14c.81,1.22,1.61,2.49,1.96,3.92,4.53,18.95,8.96,36.71,15.25,55.56,8.9,26.72,18.53,53.39,29.23,79.25.51,1,.18,1.54-.96,1.95l-.6.27c-14.29.04-28.69-1.08-42.71-3.75l.27-1.26-3.76-5.84.53-1.38c-11.43-16.42-21.69-33.05-30.79-49.9l.16-1.99c6.75-7.37,13.15-15.08,19.19-23.14l-.1-.93c-1.21.24-1.37-.3-.41-1.09l-.84-1.07c-9-2.86-17.7-6.32-26.11-10.39l-.14-1.5,10.31-28.97,1.43-.28c6.99-5.12,14.49-8.88,22.49-11.27,2.96-.61,4.82-.01,5.58,1.81Z"/><path class="cls-85" d="M337.52,375.05l1.33.05,7.34,24.93-.2,1.68c-7.61,3.34-15.21,6.56-22.8,9.68-.01,1.1-.82,2.1-2.42,2.98,8.07,7.59,15.98,15.32,23.73,23.2-.42,2.95-1.84,5.59-4.27,7.91l-1.41-.17c-2.22.55-4.42,1.79-5.77,3.77l-32.5,49.66c1.11.35.9.8-.65,1.36-19.67,2.2-20.41,1.95-39.58,2l.6-.27c.47-1.15,1.57-1.51,3.3-1.1-.74-1.69-1.28-3.48-1.62-5.37,9.35-23.15,18.15-46.49,26.33-70.07,6.77-19.51,11.66-38.15,16.81-57.92.5-1.92,1.44-3.67,2.42-5.38l.81-1.45c10.28.6,21.25,7.64,28.54,14.52Z"/><path class="cls-14" d="M379.06,89.15c2.18.73,3.56,4.77,1.82,6.25.51,2.51-2.63,3.2-3.6.83-.94-.79-1.93-1.62-2.48-2.74-7.89-16.01-13.98-28.23-25.83-42.02-5.95-6.92-12.93-12.38-20.25-17.66l-2.52.05c-4.93-2.63-10.21-4.56-15.68-5.69l-1.9-1.64c-5.1.29-10.2.38-15.29.27-4.55.83-9.1,1.54-13.65,2.13-3.2-1.73-6.31-3.83-9.33-6.28l-7.09-3.35-1.1-1.72-1.09.49c-5.7-1.46-11.48-2.46-17.33-3.03-2.21-1.11-4.84-1.35-7.89-.74l-1.02.83c-58.69,10.51-104.96,64.1-109.52,123.63l-4.09,49.31-.5.4c-.27,1.39.05,2.34.96,2.83l-.76,7.02c2.85-8.53,4.88-17.32,6.84-26.1.6-2.11,1.44-1.95,3-.88,2.42,1.66-4.65,30-6.46,34.29l-1.45.44c-1.5,6.97-3.69,13.78-6.59,20.41l-19.59,44.45-3.75,11.37c-.76,4.75-2.14,9.11-4.15,13.08-1.12,1.7-3.86,1.31-3.87-.86-1.6-.93-1.95-2.8.23-3.03-1.43-.87-1.09-2.89.65-3.12-.44-3.79.22-7.69,1.98-11.72,5.56-15.15,11.89-29.76,19-43.85,6.27-15.35,7.68-32.09,8.84-48.47l1.4-2.14c.04-2.65-.25-5.17-.87-7.55-.08-3.21.21-16.12.96-18.65.14-.48.88-1.85,1.36-2.08.54-10.55,2.19-20.97,4.12-31.69,3.77-20.89,12.14-39.85,24.8-56.79,17.57-23.49,40.95-41.48,68.75-51.22,20.2-7.07,48.75-6.57,64.6,10.37,27.04-10.25,54.1,3.85,72.49,23.95,11.08,12.12,18.71,26.2,25.86,40.63Z"/><path class="cls-17" d="M118.44,153.89l-1.45,28.27-1.51-.15-.66-5.47c-.68.35-8.66,10.83-9.15,12.25-.64,1.84-.68,3.84-.39,5.76,2.54,5.84-.29,10.88-3.65,15.75-3.09,4.48-6.67,7.36-12.26,7.87-2.23,2.67-3.93,5.48-5.09,8.43,3.41,9.8-.7,17.59-8.86,23.31-10.37,10.72-7.77,21.6,3.48,30l4.38,5.32c1.54.87,2.37,1.91,2.48,3.1-.28,1.06-.02,2.12-.65,3.12-.32,1.21-.74,1.66-1.26,1.35-4.3-3.02-8.43-6.3-12.38-9.85-.87-1.45-1.18-3.25-.91-5.38-.77,1-1.16.63-.59-.57-7.26-2.82-6.04-15.83-5.05-22.22,2.67-5.25,6.38-9.91,11.15-14,1.38-1.65,4.27-5.16,3.86-7.12-2.07-2.83-6.64-11.22-5.24-14.52.78-1.85,1.86-2.64,3.8-2.07,4.87,4.89,8.31-.44,2-3.06-2.97-6.25,7.69-6.47,9.96-1.79l1.26-.68c2.86-3.22,5.73-6.41,8.62-9.55l-2.34-7.26c-.32-5.26,1.25-10.19,4.7-14.81l-6.26,1.34c-2.97,1.58-5.24,1.39-6.81-.56.87-2.62.37-4.43-1.48-5.42-.71,1.52-2.23,1.9-3.69,1.18-1.04,2.43.19,4.38,2.86,4.5,2.67,4.93-6.04,10.77-8.62,4.06-.68-11.75-18.16-6.86-11.61,3.24,8,5.02,5.88,9.53-.99,14.03-4.28,2.8-9.87,5.55-11.66-1.21-.71,1.28-1.45,1.64-2.6.52-.26,5.42-4.02,10.33-7.5,14.54-5.37,6.5-11.06,11.61-17.35,17.01-.59.68-1.01,1.77-.29,2.43.78-.94,1.13-.59.53.53,3.48,3.39,12.66,14.87,2.64,15.4l.39.88c6.7-.85,5.3,11.03.43,12.16-6.85-2.82-7.85,4.55-.81,3.73l1.15.8c1.23,4.26,1.75,8.8,1.55,13.62,2.27,6.94,4.25,13.94,5.96,20.98,1.5,2.66,4.28,3.43,7.06,4.15,3.24,3.15,6.38,6.43,9.43,9.83l15.14,8.49c4.94,1.75,9.48,4.03,13.62,6.84.04-.56.21-.55.5-.03.2-.11.42.12.65.68,1.94-.04,2.54,4.3.79,5.01-2.05-2.54-5.27-3.51-8.14-5.28-2.45-1.52-4.74-2.77-7.3-4.02l-8.85-4.3c-13.95-6.78-14.16-13.54-20.26-15.52-6.89-2.24-6.68-12.03-8.71-16.32-1.43-3.02-2.38-5.73-3-9.08l-1.26-6.82c-.57-3.06-2.18-4.27-4.51-5.74-1.91-1.2-3.53-4.71-3.09-6.99.51-2.59,3.12-4.16,4.88-5.57,2.01-1.61,1.61-3.61,1.46-5.8-.13-1.97,1.7-4.34.71-6.11l-3.81-6.85c-1.04-1.87-1.61-4.98-1.4-7.16.42-4.42,4.18-6.99,7.1-9.59,2.54-2.27,5-4.33,7.58-6.29,2.01-1.52,2.3-3.45,3.42-5.5,2.6-4.78,6.65-11.5,11.05-14.39,2.34-1.54,5.8-.51,8.46-.5,1.44,0,4.82-.91,4.39-2.67l-2.37-9.54c-1.18-4.75,7.05-11.33,11.48-9.81l6.4,2.2c9.96-7.82,6.05-2.57,16.37-6.8,3.46-1.42,3.92-3.39,4.08-7.03.14-2.96,3.45-6.5,6.18-7.55,3.3-1.28,9.51.43,9.95.08.95-.74.19-3,1.48-2.53.23.08.36.37.41.69Z"/><path class="cls-76" d="M355.2,364.16l3.52.17c17.13,6.33,34.12,12.34,50.97,18.04l.28,1.43c.95-.88,1.44-.56,1.09.67,1.65-.92,4.56-.02,4.34,2.27,1.48.78,3.24,1,4.97,1.85,8.23,4.01,13.36,16.19,16.11,24.58,2.61,7.94,4.88,15.84,6.63,24.01.41,1.9-2.62,2.21-3.22,3.13l-1.5-.52-6.98-24.17c-2.11-8.44-6.1-15.39-11.98-20.87-.55,1.83-1.43,2.8-2.63,2.91-4.54,9.34-7.1,19.37-11.25,29.61.86-10.63,4.47-20.8,7.81-30.88-.98-.84-.85-2.21.39-4.11,0,0-4.04-1.89-12.13-5.68l-27.23-8.81-.32-1.42c-2.43.66-4.65-.09-6.88-1.09-8.09-3.03-15.83-6.72-23.25-11.06l-1.11.81c4.29,10.96,8.24,22.04,11.85,33.24,1.69,4.88,2.19,8.1-2.99,10.84-7.94,2.3-15.7,4.8-23.25,7.49,1.89.87,2.66,1.92,2.3,3.15l14.57,14.19c1.23,1.19,2.48,2.17,2.37,3.68-.1,1.39-.36,2.83-1.28,4.25-12.95,19.81-26.33,39.21-40.9,57.61l-5.61.63.65-1.36c10.57-15.96,21.61-31.66,32.69-47.28,1.61-2.26,3.58-4.23,5.58-6.15,1.52-2.32,4-4.21,4.59-7.4l-24.88-23.96c1.63-.94,3.29-2.09,4.67-2.56,8.17-3.64,16.69-6.52,25.55-8.63-3.14-9.38-6.24-18.74-9.32-28.09l.1-2.06c-.49.17-1.13.22-1.25-.11-1.56-4.3-3.11-8.64-3.89-13.16l-1.56-.55c-1.16-3.1-2.45-6.23-4.75-8.68l-20.82-20.68-4.58-2.82-.82-1.97c-2.05-.5-1.48-3.46.57-3.6.35-.5.8-.85,1.39-1.01,1.17-.32,5.94,2.49,7.12,3.47l23.36,22.96c1.72,2.86,3.29,5.8,4.73,8.81,4.83,2.89,9.92,5.27,15.27,7.12l.9,1.77Z"/><path class="cls-76" d="M221.3,321.67c1.02,3.37.85,5.98-2.96,7.31-7.41,5.97-14.39,12.54-20.94,19.72l-2.89,1.36c.02.3.02.58-.09.82-2.41,5.21-4.62,10.15-6.84,15.43-.2.49-.81.61-1.39.58l-.11,2.29c-4.33,11.14-8.47,22.37-12.42,33.68,9.63,2.69,19.15,5.7,28.57,9.02l.5.94c.22.31.25.76.41,1.09.04,1.14-.38,2.06-1.07,2.92-6.32,7.89-14.23,14.74-21.89,21.25,11.27,17.23,22.77,34.5,34.5,51.79,1.88,2.32,2.88,5.49,5.46,7.7-1.02.92-1.7.6-2.5.77-1.36-.26-3-.69-4.36-.81-13.23-17.43-26.28-35.43-37.97-54.75l-1.15-4.32c.43-2.49,2.25-4.59,4.38-6.41,3.87-3.31,7.5-6.57,11.07-10.22,2.1-2.15,4.62-3.73,6.45-6.36l-24.14-7.22c-2.61-.78-3.5-2.21-4-4.24l.08-4.19c3.02-10.32,6.63-20.5,10.82-30.52,1.3-1.23,1.26-2-.14-2.31-9.33,5.58-19.26,10.02-29.78,13.32-11.63,3.8-23,7.99-34.11,12.59.99,1.83,1.14,3.38.45,4.66,2.76,9.33,7.17,18.27,7.55,28.72l-10.74-26.7c-1.15-.09-2.03-1.33-2.63-3.7-6.08,6.11-10.2,13.69-12.35,22.74l-6.17,23.01-1.47.61c-.66-1.01-2.92-1.04-3.64-2.76,3.49-14.05,8.45-40.9,21.48-49.03,3.61-2.25,7.49-3.48,10.99-5.39.45-1.91,2.18-2.52,5.22-1.86-.25-1.3.29-1.56,1.15-.56,4.37-3.24,10.86-5.55,16.3-5.67-.12-1.95,2.02-2.92,3.24-1.32,2.11-2.18,6.56-3.62,9.68-4.53,1.3-.38,2.77-.7,4.07-.37-.98-1.62,2.29-2.94,3.26-1.41l1.01-1.35c7.01-3.3,14.11-6.51,21.3-9.63,1.31-3.45,2.95-6.72,4.92-9.83,7.72-8.22,15.72-16.18,24.02-23.9l4.07-2.54c1.92-1.33,3.52-1.48,4.81-.43Z"/><path class="cls-40" d="M428.3,253c-1.83.25-2.14-.96-.81-2.23-1.81-.45-2.05-1.38-.68-2.64l1.35-2.43c9.59-8.39,18.71-17.31,27.34-26.76,3.13-4.56,6.85-8.41,11.16-11.57.58-2.12,1.6-3.15,3.07-3.09,3.26,3.33,7.16,6.22,11.78,3.64,8.4-7-.36-15.29-9.14-12.26-1.38-.6-1.64-1.88-.79-3.83,3.31-8.77,5.57-17.92,6.78-27.44l1.48-3.31c6.3-6.86,5.5-8.62-1.2-14.14-5.45-8.99-11.69-17.51-18.72-25.55l-1.09-2.04c-5.66-3.85-9.82-8.67-5.15-15.01-1.61-.43-1.48-.86.09-1.31-2.87-1.44-3.9-3.12-3.07-5.03-3.13-1-7.39-3.95-8.81-7.06-1.06-.65-2.06-.65-3-.01-1.2,5.59-12.83,10.52-17.92,10.33-5.48-.21-11.69-2.11-7.92-8.55-.05-.88-.55-1.55-1.48-2.01l.18-1.57c1.69.16,2.88.68,3.37,2.98,1.27,5.94,10.29,2.67,11.02,1.93,2.88-2.88,5.99-3.98,9.62-5.38s6.26-1.95,10.05-.13c4.81,2.31,10.76,6.42,10.94,12.45.18,5.83,1.3,10.34,4.87,15.06l4.86,6.42c.98,1.3,3.97,4.69,5.49,2.38,1.5-2.28,2.15-4.76,4.8-6.67,4-2.89,10.58-2.08,13.17,2.62,1.93,3.5.68,7.67-1.5,10.18-2.45,2.82-6.13,3.95-10.38,3.39-1.96,3.63,6.77,9.88,9.25,14.89,1.43,2.9.54,10.26-2.09,14.06l-3.53,5.11-4.27,20.7c-.78,3.77,9.64,3.85,10.29,11.65.31,3.69-1.37,7.57-4.68,9.17-8.75,4.22-12.09-5.13-18.14,5.21-1.17,2.01-3.34,3-4.6,4.89-2.94,4.4-6.16,5.41-5.57,7.54.87,3.12,5,.02,7.84,4.32,1.13,1.7,2.55,3.61,2.98,5.82.88,4.59-2.61,8.9-6.36,10.42-4.37,1.78-8.97.06-12.11-3.39-1.07-1.17-2.4-4.18-4.38-3.89-3.69,1.57-7.19,4.61-9.96,7.49l-4.45,4.64Z"/><path class="cls-213" d="M428.3,253c4.58,17.65,6.42,35.62,3.93,54.02-.82,6.06-.77,11.67-.66,17.79.29,15.81-2.13,31.18-7.78,45.9-2.27,5.9-5.49,10.83-8.39,16.03l-4.34-2.27.09-1.22c21.59-34.37,17.22-77.71,4.8-114.96l.19-1.9c-1.23-1.13.51-2.12,1.33-1.79,3.63,1.42,9.64,21.08,10.54,25.67-.25-2.09.02-3.8.81-5.14l.04-4.97c-.47-.48-.86-.97-.98-1.52-1.58-7.23-2.91-14.79-4.17-22.1-.09-.53-.02-1.09.07-1.67s.27-1.18.48-1.76c-.57-2.05,1.49-3.7,3.23-2.36.15.77.62,1.47.81,2.23Z"/><path class="cls-41" d="M425.34,44.2c-7.94,8.55-6.93,9.38-18.05,13.43-8.27-3.99-15.47-9.65-19.66-17.71-2.67-5.13-.46-10.98,3.29-14.87,4.53-4.71,11.44-12.61,18.4-11.27,3.16.61,6.74,2.48,8.64,4.94,1.71,2.2,3.63,3.44,5.51,5.46,2.83,3.04,5.45,7.75,5.53,12.05.05,2.6-2.06,6.25-3.66,7.97Z"/><path class="cls-28" d="M411.75,89.13c.7.85,1.85,1.31,2.2,2.11,1.34,3.03-1.72,4.08-.77,6.21.62,1.39,9.26,4.09,13.36,1.49,3.25-2.06,7.44-2.91,9.81-5.38l2.53-2.64,1.18,1.26c-.33,8.39-5.44,10.9-12.71,12.52.14,1.27-1.03,1.93-3.51,1.97-11.98-3.54-24.23-5.47-36.76-5.79-2.06-.44-3.65-1.4-4.79-2.87-1.7.18-2.53-1.31-1.42-2.62-.66-1.94-.91-4.41-1.82-6.25,2.09.46,11.46,2.74,13.19.24,1.61-2.33-1.34-8.19,5.67-10.73,2.51-.91,7.61.99,7.98,4.1.47,3.9,2.12,6.01,5.85,6.37Z"/><path class="cls-31" d="M84.51,41.48c1.24.36,1.23.9-.03,1.18l-.62,3.78c.56.08.53.27-.03.56-.39,1.57-.95,3.38-1.87,4.71-5.31,3.64-9.15,8.24-11.53,13.79-1.79.68-3.62,1.27-5.49,1.75-.13.59-.34.58-.63.03l-3.78.59c-.33,1.22-.34,1.75-.03,1.6,13.83,1.75,20.53,3.1,23.98,17.66.45,1.92,1.99,10.85,1.35,12.09-.13.25-.42.41-.76.55-3.39-1.19-4.52-3.94-6.59-6.59.46.59-12.99-14.73-11.67-13.49l-6.76-6.34c-1.21-1.13-3.55-1.87-2.93-4.11.95-3.37,8.01-9.38,10.75-11.74,2.93-2.52,7.78-10.58,10.28-12.15,2.72-1.71,3.97-4.25,6.22-5.9.66.3.47,1.36.14,2.04Z"/><path class="cls-137" d="M87.5,40.12l1.27,2.92c1.39,10.84,2.84,21.19,15.21,22.56,3.89.14,7.16,1.07,9.82,2.78-.1.97,0,1.57.08,2.01l-1.43,1.48c-6.88.33-12.92,2.26-18.11,5.82-3.44,5.41-5.25,11.51-5.43,18.3-.84,2.7-2.13,3.96-3.86,3.77-1.38-8.14-1.3-22.44-10.95-26.08s-15.63-1.5-15.5-4.91c.04-1.19,1.33-.45,1.92-.91l3.78-.59c.19.03.44,0,.63-.03,3.16-1.05,6.28-2.23,9.35-3.54l3.21-2.28c2.74-4.45,4.85-9.26,6.34-14.43-.01-.19.03-.38.03-.56l.62-3.78c.08-.37.06-.8.03-1.18.14-.91.34-1.77.6-2.58,1.27-.53,2.02.38,2.4,1.22Z"/><path class="cls-8" d="M213.26,497.53c-4.3-.38-8.41-1.64-12.59-2.58.4-.39,1.12-.58,1.24-1,.2-.71-.54-1.33-.91-1.93l-19.83-32.09c-4.01-6.48-8.27-14.26-7.04-21.48,5.93,9.8,11.82,19.51,18.72,29.07l20.57,28.51c.42.59.11,1.18-.16,1.49Z"/><path class="cls-152" d="M439.9,440.31c-.61.93-2.18,1.87-3.1,2.63l-11.14-30.16c-2.13-5.76-5.38-10.43-8.84-15.12.69-1.42.84-3.36,2.41-4.49,11.68,6.11,16.79,35.99,20.67,47.14Z"/><path class="cls-15" d="M113.81,68.39c-6.77-1.2-19.16-1.36-22.46-9.39-2.52-6.11-3.7-12.55-3.84-18.88,1.28,2.81,3.74,3.49,5.82,5.01,2.69,1.98,4.45,5.21,6.57,7.84,3.66,4.53,7.85,8.4,11.84,12.7.92.99,2.22,1.32,2.08,2.71Z"/><path class="cls-136" d="M85.06,99.77c4.33.69.97-8.76,6.53-20.33,3.55-7.4,15.66-7.79,22.3-9.04.46,2.62-2.32,3-3.84,4.23-1.78,1.45-2.61,4.14-4.74,5.27-2.83,1.5-4.27,4.04-6.37,6.17-1.78,1.8-3.4,3.14-4.47,5.61-1.09,2.54-4.35,3.95-5.74,5.99-1.47,2.16-1.93,2.71-3.68,2.09Z"/><path class="cls-111" d="M112.04,399.58c-9.66,8.98-16.09,32.54-19.46,45.26-1.12-.93-2.3-1.27-3.16-2.59,3.17-11.49,8.96-41.64,20.09-47.89,2.03,1.26,1.87,3.6,2.52,5.22Z"/><path class="cls-124" d="M473.93,312.14l1.33,2.37c.06,9.44,3.92,14.76,13.75,14.91l2.41,1.67c-.13.86.13,1.33.03,1.73l-3.01,1.89c-10.02.31-13.1,5.95-13.4,15.22l-1.17,1.34c-.98.5-1.24,1.52-2.31,1.08-1.73-2.97-2.75-6.38-3.08-10.24-1.93-4.98-6.19-7.46-12.8-7.45-1.05-.69-1.82-1.49-2.31-2.39.16-.33.33-.82.48-1.12l1.66-1.55c6.22,0,10.49-2.27,12.81-6.82.56-3.93,1.64-7.65,3.25-11.17.72-.2,1.82-.12,2.33.54Z"/><path class="cls-29" d="M103.24,336.81l1.5,2.49c1.86,16.19,9.19,31.55,18.73,43.9-1.48,1.19-3.61.98-5.22,1.86-10.35-13.95-17.94-30.17-18.87-47.75-1.36-4.81,3.46-5.46,3.86-.5Z"/><path class="cls-50" d="M93.79,334.26c.56.18.57.39.04.64-.49,9.97,2.08,19.36,5.21,29.57-6.82-7.55-11.87-16.4-13.34-25.78l-.79-5.01c-1.19-3.11,2.28-4.97,3.42-1.59l1.17.34c2.14-1.72,3.97-.83,4.28,1.83Z"/><path class="cls-155" d="M44.65,342.69c-2.99,2.16-6.54.37-8.64-1.89-2.26-2.42-2-5.99-.29-8.64,1.76-2.73,5.65-3.84,8.5-2.49s4.19,3.51,4.48,6.13c.3,2.75-1.4,4.97-4.05,6.88Z"/><path class="cls-133" d="M491.43,331.09l-7.86-1.29c-8.74-1.43-9.52-10.89-9.64-17.66,4.67,5.98,8.39-.86,15.52,16.54.43,1.04,2.15,1.25,1.98,2.41Z"/><path class="cls-145" d="M453.87,331.15l4.48-8.92c1.35-2.7,4.64-5.64,7.64-6.39,2.94-.74,4.42-1.56,5.61-4.23l-1.46,9.23c-.8,5.08-4.24,8.31-9.36,9.17l-6.91,1.15Z"/><path class="cls-162" d="M471.59,352.34c-1.18-.49-1.42-1.53-2.29-2.22-2.28-1.81-5.73-2.16-7.44-4.46l-3.17-4.25-3.93-6.8c-.49-.85-1.87-1.33-1.36-2.35,1.99,2.45,9.22.43,13.78,4.95,3.8,3.77,3.23,10.91,4.41,15.12Z"/><path class="cls-104" d="M491.46,332.82c-1.08,1.28-2.16,2.11-2.83,3.49-3.22,6.64-8.42,11.7-14.74,14.95-.17-5.34,1.17-15.14,8.16-16.55l9.41-1.9Z"/><path class="cls-2" d="M100.08,309.03c1.92.56,1.32,5.94-.61,6.3,1,5.06,1.26,10.3.77,15.73.08,1.75-.15,3.29-1.58,4.44-1.51-.95-3.21-1.54-4.84-.6.01-.21-.04-.43-.04-.64-1.3-1.52-2.19-4.17.08-5.02.92-2.82.64-5.04-.84-6.66-4.69.98-5.67-5.46-1.23-6.75,1.35,1.06,2.66,1.47,3.91,1.23-1.32-.72-1.62-1.12-.01-1.63l-.68-1.24c.77-1.91,1.33-3.91,1.67-5.99l1.43-.34c-1.23-2.72,1.42-10.14,4.27-6.79.29.34-.61,8.31-2.31,7.96Z"/><path class="cls-116" d="M124.78,44.7c-2.69,2.39-7.95.8-8.79-2.59-.52-2.13-1.03-3.52-.16-5.3.67-1.36,2.05-2.11,3.79-2.94,2.94-1.4,5.67.1,7.16,2.56,1.63,2.69.92,5.68-2.01,8.28Z"/><path class="cls-94" d="M66.16,116.42c-2.39.72-4.29,0-5.68-1.15-1.76-1.47-2.01-3.55-1.82-6.09.23-3.11,3.27-4.78,5.94-4.79,3.03-.01,5.51,1.95,5.93,4.63.5,3.23-.91,6.36-4.37,7.41Z"/><path class="cls-86" d="M103.17,317.25c2.02,2.49.85,6.67.07,9.48.76,2.83,1.7,6.82.17,9.38,1.22.23,1.1.7-.17.69-.05-.61-.68-1.19-.9-1.6-.34-.62-1.94-.61-2.39-.23s-.6,1.75-.56,2.33c-.63-.12-.77-1.24-.71-1.81.73-6.73.17-13.51.81-20.16.78.26,1.43.89,1.94,1.9h1.75Z"/><path class="cls-47" d="M468.35,283.71c-1.31,2.38-3.95,3.52-5.93,2.08-1.7-1.23-2.71-3.76-1.14-5.69,1.4-1.71,3.13-2.21,5.17-1.43,1.64.62,3.11,2.82,1.89,5.03Z"/><path class="cls-101" d="M365.97,16.76c2.12-1.16,4.3-.17,5.14,1.49.88,1.74.53,4.52-1.27,5.32s-4.04.28-5.17-1.26-.99-4.3,1.29-5.55Z"/><path class="cls-188" d="M92.29,152.06c1.66,1.26,1.17,3.74-.02,4.91-1.1,1.08-3.57,2.06-5.06.51-1.2-1.26-1.31-4-.09-5.28,1.14-1.2,3.71-1.25,5.17-.14Z"/><path class="cls-60" d="M439.5,251.03c1.52-.86,3.52.02,4.04,1.32.62,1.55.12,3.25-1.61,4.15-1.29.67-2.6.37-3.72-1.22-.78-1.11-.74-3.1,1.29-4.25Z"/><path class="cls-211" d="M65.01,340.17c-1.37.48-2.64.39-3.57-.26-.87-.61-1.04-2.02-.69-3.31.28-1.03,1.47-1.71,2.97-1.76s2.42.75,2.87,1.89c.48,1.22.29,2.8-1.57,3.45Z"/><path class="cls-5" d="M79.42,372.35c1.48-.77,3.21-.46,3.53.63.39,1.36.43,3.35-.85,3.71-1.1.31-2.84.55-3.59-.41s-.62-3.14.91-3.93Z"/><path class="cls-96" d="M100.34,125.66c.79,1.33-.15,2.53-.86,2.81-1.02.4-2.34.5-3.11-.11s-.96-2.62-.07-3.46c1.02-.96,3.22-.64,4.04.76Z"/><path class="cls-65" d="M434.05,63.12c1.06-.48,2.07.33,2.46.99.72,1.19-.09,2.28-.94,2.66-1.17.52-2.5.31-2.88-.64-.51-1.25.13-2.46,1.36-3.01Z"/><path class="cls-168" d="M84.51,41.48l-.14-2.04.74-.54c-.1.83.32,2.16-.6,2.58Z"/><path class="cls-130" d="M343.96,364.21c9.34,5.2,19.05,9.74,29.1,13.6l.28,1.49,1.13-.9c.89.21,8.29,3.05,8.59,3.4.35.42.4.97.37,1.5.16.57-.07,1.93-1.18,2.02-9.83.73-19.33.68-29.26-.09l3.72,16c.62,2.65.57,5.44.87,8.14-1.85,2.25-4.23,3.21-6.87,4.05l-19.96,6.33c-1.17-1.14-3.53-1.68-4.49-4.17l22.45-6.82c1.83-.56,4.8-1.32,5.52-3.18.79-2.04-.09-4.85-.74-6.93-3.87-12.34-8.26-24.17-13.19-36.1,1.71-.41,2.55,1.2,3.64,1.66Z"/><path class="cls-204" d="M413.38,396.38l-16.15-7.39-13.81-5.69-10.08-4c-1.98-1.06-1.46-2.85.74-2.94l25.97,8.37c5.41,1.74,10.35,3.9,15.16,6.9-.26,1.75-1.32,3.21-1.83,4.75Z"/><path class="cls-8" d="M167.9,404.01c-1.4-5.71.34-11.4,1.58-18.18-9.94,1.15-19.62,2.48-29.57,2.91-.57.03-.85-.94-.86-1.06l2.27-2.29c12.7-5.23,27.39-12.03,37.34-18.4.78-.35,1.32-1.6,2.96-1.59l-12.44,32.79c-.77,2.03-1.21,3.95-1.29,5.82Z"/><path class="cls-200" d="M178.67,366.98c.5-.17.55.45.29.85-13.34,8.68-25.57,13.97-39.9,19.84-7.93,3.25-16.06,6.18-23.84,9.88-.51-1.73-1.72-3.27-1.81-5.45,6.87-3.19,13.68-5.54,20.92-8.01,15.21-5.17,29.91-10.71,44.33-17.11Z"/><path class="cls-194" d="M308.17,361.98c-3.44,17.01-8.07,33.54-13.58,50.37-9.25,28.29-19.6,55.67-30.79,83.19.56,2.56,1.59,4.16,2.31,6.35-2.02.21-3.61,0-5.19-.07.13-.96-.29-1.66-.77-2.86-12.62-31.2-24.19-62.42-33.93-94.7-4.37-14.5-8.39-28.55-10.77-43.12l-1.38-.8c-.59-7.42-.95-21.69,3.89-27.62,2.85-3.49,3.9-2.67,3.58,1.54l1.18.7c-.69,7.11-1.72,14.19-3.09,21.24l1.37,1.41c.7,6.84,2.13,13.65,3.79,20.39,9.07,37.01,23.02,73.5,36.69,108.85-.26,4.25-.21,3.83.15-1.27,14.2-36.13,28.26-72.53,37.65-110,.78-5.55,2.28-10.74,4.49-15.57l.43-1.94c-1.8-.72-1.82-1.83.04-2.48-.98-7.72-2.15-15.46-3.49-23.22l1.21-1.4c1.18-1.91,3.18.08,4.29,1.37,5.41,6.3,4.32,20.79,3.39,28.63l-1.46,1Z"/><path class="cls-114" d="M221.54,334.26c-.29-.75.35-1.81-.81-2.67-6.54,5.06-6.23,23.68-5.27,29.56-8.99-3.23-19.43,6.31-27.7,10.79-.55-.16-.24-.91-.37-1.32-1.16-.36-1.15-.89.05-1.16l-.08-2.62s2.38-5.59,7.15-16.77c5.15-5.97,11.08-11.3,16.92-17,2.99-2.92,5.98-5.46,9.83-7,.26-1.79.07-3.07.04-4.4.27-.57.9-.98,1.27-.61,1.36,1.33.73,10.5.3,12.68l-1.33.53Z"/><path class="cls-24" d="M214.66,489.87c-8.37-10.29-15.72-21.3-23.34-32.49-4.37-6.41-8.69-12.35-12.23-19.51,8.41-8.09,17-15.28,24.03-23.96.16.17.71.14.9.26.41.25.61.92.17,1.52-5.58,7.67-11.48,14.71-18.14,21.35-1.34,1.33-1.2,2.94-.33,4.4l8.72,14.55c6.62,11.04,12.93,21.88,20.23,32.47.31.45.27,1.38-.03,1.41Z"/><path class="cls-108" d="M187.43,369.45c-.08.36.07.81-.05,1.16l-10.76,30.22,25.7,10.26c.4.16.64.66.76.87.14.24-.09.63-.36.88l-30.75-9.15c4.51-13.01,8.88-25.1,14.21-36.78,2.02-2.44,1.98.47,1.26,2.55Z"/><path class="cls-185" d="M334.38,359.34c.94,4.54,2.26,8.98,3.95,13.32l-.59,1.13c1.61.48,1.44,1.04-.21,1.26-.13.48-.72.37-1.13.04-5.22-4.23-21.71-15.16-28.23-13.11,1.34-6.61,2.69-28.85-6.23-31-1.97-.35-1.96-5.78-.09-6.35,2.05,1.43,4.6,2.22,6.57,4.18l20.15,20.02c3.11,3.09,4.38,6.84,5.8,10.51Z"/><path class="cls-49" d="M338.83,445.31c-11.99,18.3-24.75,36.22-38.27,53.43,8.26-17.38,21.03-32.99,31.28-50.08,1.22-2.04,6.11-5.91,6.99-3.35Z"/><path class="cls-200" d="M323.2,411.39c0-.92.89-1.3,1.81-1.7,6.72-2.9,12.92-6.11,20.19-8.59l-7.67-26.05.21-1.26c-.72-1.68.43-2.36,1.79-1.18,3.87,9.98,7.51,19.99,10.67,31.04l-27,7.74Z"/><path class="cls-70" d="M262.16,17.56c2.26,1.39-.27,2.33-1.95,2.79,4.22,2.83,8.74,5.94,11.89,10.02,4.83,6.26,3.56,9.91-3.95,4.52-10.06-5-22.44-8.28-33.53-5.54,8.04-.7,17.55-1.04,22.98,5.79,3.07,1.67,12.46,8.1,12.7,11.37.14,1.97.2,2.81-1.79,2.42-13-7.87-27.56-7.26-41.24-1.95,9.41-2.67,19.76-.79,28.48,3.54,2.34,1.16,11.06,6.18,11.07,8.32,0,.59-.63.82-1.34.74l-2.21.22c-13.36-6.9-28.78-4.76-41.47,2.65-33.05,19.3-40.05,65.45-43.14,100.5-2.62,20.33-8.45,40.3-19.23,57.92-.28.46-.73.82-1.21,1.18s-1.03.68-1.59.96c-.9-.68-1-1.78-.29-3.3,10.42-21.63,14.09-45.12,15.17-68.7.11-1.28.25-2.41,1.59-2.82.92-2.32,1.56-5.71,1.92-10.17l-1.2.21c-.83-.3-.64-3.13-.54-2.96.31.52-.95,10.63-1.15,12.12-3.53,26.31-7.64,53.02-23.4,75.95l-16.01,25.73c-10.97,17.03-12.87,33.75-13.77,53.32-.05,1.07-.31,2.04-.99,2.91,2.99,4.61,1.27,6.89-4.24,7.03-6.02.15-7.29-1.24-7.5-6.87.81-6.67,1.54-13.26,2.21-19.75-.82-.5-1.21-1-.91-1.86-3.66,5.65-6.91,11.54-9.73,17.68l-2.04,1.18c-1.78,1.19-2.91-1.55-2.41-3.1-.41-.89-1.08-2.38-1.14-3.31-.18-2.55,2.19-10.95,3-13.66,5.28-17.6,10.99-34.92,19.11-51.45,3.78-8.28,6.63-16.67,8.55-25.17,2.39-7.78,8.53-28.06,6.5-35.24-2.88,13.17-5.88,25.68-10.81,37.94l2.19-20.29.47-.06c3.08-42.72,8.39-85.69,36.82-121.95,17.62-22.47,49.82-49.27,79.15-51.58,1.11-.09,6.59-.13,6.28-.1-2.25.22-5.78.27-7.59-.48,8.72-1.55,17.91.44,26.32,3.28Z"/><path class="cls-132" d="M308.62,26.51l-.62,1.52c-4.96,1.52-11.37,3.84-12.72,9.14,6.18,0,12.3.54,18.36,1.63,3.55.82,6.54,2.77,8.94,5.83,3.51.92,5.98,2.5,7.95,5.57,3.09,1.94,6.56,6.32,1.12,7.39-9.16-4.8-19.6-6.11-29.36-2.32,5.76-1.12,24.27,3.25,25.77,8.22,1.31,4.33-5.17,2.7-7.61,1.82-2.84-.4-5.69-.66-8.56-.77l-.66.62-1.73,1.17c-6.53-.21-13.1,1.12-18.8,4.37l-2.06-.21c-.33,1.61-1.63,2.75-3.9,3.43-1.61,1.22-3.46,2.6-5.57,1.63-3.88-5.54-8.45-10.36-13.71-14.49v-1.47c.64-.08.05-.7-.19-1.16-8.28-7.24-18.9-11.55-30.04-11.44-5.66.05-10.22,2.42-16,3.27,4.56-4.13,10.29-5.41,15.98-6.98,11.91-3.29,23.64-1.61,34.59,5.07-2.26-4.8-6.18-8.3-10.63-10.68-6.69-3.58-2.65-6.38-17.03-7.41-6.25-.45-11.84,1.49-18.33,1.71,2.98-2.61,6.9-2.72,10.45-3.83,11-3.43,30.15,1.73,39.76,8.91-1.13-6.78-10.67-13.27-15.92-16.55-4.25-2.65,4.47-.31,4.06-2.94,5.41,1.83,10.37,4.34,14.92,8.55,5.57,5.15,8.08-3.69,31.54.41Z"/><path class="cls-95" d="M116.99,182.16c-1.07,16.49-2.76,37.83-10.02,53.19l-11.12,23.53c-4.57,9.67-7.48,19.45-10.08,29.46-4.12-1.42-5.86-6.07-8.91-8.66-3.69-3.13-6.89-5.23-8.01-10.47-.76-3.54-1.96-7.06-.61-11.01,1.73-5.09,5.54-8.76,9.7-12.1,5.47-4.39,7.65-10.99,5.44-17.51-1.05-3.11.4-5.35,2.49-7.39,1.11-1.08,1.74-4.17,3.61-4.35,6.75-.65,10.42-5.26,13.1-10.91,1.25-2.64,3.46-4.24,2.25-7.91-3.42-10.39,3.06-14.6,4.1-15.94l4.89-6.33c.44-.57.92-1.3,1.42-.9,2.04,1.63.47,5.96,1.74,7.3Z"/><path class="cls-126" d="M328.71,33.8c15.67,10.47,29.09,25.91,36.58,44.13.18.43.21.93.21,1.45s-.08,1.08-.18,1.62c-.44,3.22-7.05,2.13-7.7-.7-1.07-1.82-1.45-2.02-1.12-.59,1.33.83,1.25,1.22.05,2.07-4.5,0-7.36,1.5-8.59,4.52.62.87.67,1.38-.21,2.25-.4.29-1.03.69-1.3.46-.85-.72-7.8-7.79-7.88-8.36l.3-1.51c-.62.14-1.3.19-1.78-.2-7.58-6.06-14.53-10.83-24.53-12.39l-1.32-1.4c-.35-.89-1.53-.07-3.06-.79,5.59-.97,11.23-1.14,16.95.85.65.23,1.53.05,1.64-.31s.31-1.37-.26-1.77c-5.66-3.88-12.08-6.11-19.04-6.64-3.12-.24-6.15.63-9.43-.9,10.77-5.17,23.01-5.09,33.04.51.91.51,1.54.29,1.93-.23,1.37-1.82-2.86-4.06-3.59-5.05-1.48-2.01-3-3.93-5.58-4.39-2.81-.49-3.79-2.92-5.67-4.4-4.65-3.65-18.36-3.26-25.24-3.75,3.34-8.02,8.74-9.54,15.71-11.79,7.28,1.27,13.67,3.62,20.1,7.29Z"/><path class="cls-115" d="M235.84,14.28c2.35-.13,4.88.08,7.59.48-8.77.68-17.05,2.65-25.47,6.25-20.38,8.72-38,21.83-52.6,38.51-9.96,11.38-18.21,23.39-24.34,37.28-7.03,15.93-11.96,32.11-14.12,49.4l-5.59,44.78c-.82-.69-.38-1.7-.62-2.52l1.63-29.4c1.49-26.82,5.27-53.68,19.06-77.14,7.72-13.14,16.86-24.78,28.13-35.04,17.06-15.52,43.31-31.29,66.31-32.59Z"/><path class="cls-122" d="M377.28,96.22l1.54.59,1.61,4.47c3.01,1.73,3.63,3.47,1.87,5.22.5,2.5,1.22,4.94,2.18,7.33l-.98,1.18c.46.55.9,1.11,1.26,1.72s.68,1.19.83,1.82c2.2,9.3,3.6,19.36,4.91,28.86.09.64,0,1.31-.12,1.99s-.31,1.37-.53,2.05c-.19,2.54-1.27,1.68-1.85-.58-2.33-9.82-5.08-19.51-8.25-29.09l-.03-3.75c-2.32-.41-3.43-6.18-2.42-8.12h-1.31c-1.12-2.33-3.06-7.86-3.67-10.39-.08-.33.52-.69.94-.86l-1.61-1.15c-1.88-5.02-4.15-9.88-6.81-14.56l.48-1.94c-5.18-11.46-11.36-22.52-20.05-32.14-3.03-3.35-6.38-6.15-9.64-9.23-1.95-1.84-9.6-6.26-6.91-5.84,8.63,4.93,16.05,11.01,22.87,18.94,11.13,12.94,19.44,27.82,25.69,43.48Z"/><path class="cls-207" d="M93.32,299.63c.16,1.21-.33,1.23-.73.02-1.49-.86-2.77-2.08-3.86-3.67-.54-.17-.52-.38.02-.62,1.9-11.88,5.6-23.39,10.83-34.56l10.67-22.76c4.95-10.56,9.22-21.09,12.58-32,.36-.1.72.71.57,1.27-2.84,10.31-6.41,19.86-10.63,29.76-7.03,16.47-13.3,32.81-17.46,50.25-1.03,4.3-2.17,8.27-1.99,12.31Z"/><path class="cls-173" d="M382.29,98.02c3.04,3.27,4.77,8.69,4.38,13.16,1.99.31,2.22,2.09.49,3.05.43,2.04-2.58,1.95-3.67.79-.65-2.72-2.31-5.61-2.41-8.7-.03-.76,1.53-1.37,1.07-2.36-.3-.64-1.62-.52-2.14-1.12-1.65-1.9-1.9-4.52-2.73-6.61,1.21.45,2.74.14,3.6-.83.62.76,1.11,1.64,1.42,2.62Z"/><path class="cls-99" d="M88.76,295.36c-.03.2,0,.42-.02.62.47.13,1.12.35,1.16.73.07.73-1.26,9.54-1.56,10.4l-1.37.69c.59,1.76.65,3.82-1.45,3.78-2.39-.05-2.41-5.04-1.85-6.91-2.03-.08-1.65-1.97.11-2.45.76-1.11.79-2.05.1-2.83l.44-.87c-1.64-1.04-1.31-2.95.26-3.89-.1-.54.02-.58.33-.14,1.15.7,2.6.49,3.87.86Z"/><path class="cls-181" d="M85.12,291.47c-.49.79.04,2.17-.23,3.03-.11.06-.22.1-.33.14l-1.5.55c-3.65-1.51-8.34-5.54-9.37-9.47-1.14,1.18-2.22.59-1.88-1.07-2.54,1.73-5.2-4.36-1.95-5.02-1.42-.93-.82-1.88.71-2.04,1.29,1.06.26,3.42,1.68,4.6l8.29,6.87c1.56,1.29,2.53,3.04,4.58,2.4Z"/><path class="cls-181" d="M69.98,277.03c-.62,1.72-1.18,1.74-1.87,0-.37.51-.95.91-1.48.65-3.71-1.78-4.76-10.39-4.11-14.04-2.47-9.68,3.58-16.95,10.26-22.87,1.21-2.56,2.99-4.12,5.36-4.67,1.24-1.55-.39-2.46-4.9-2.74l-.22-1.56c-6.6-5.13-2.55-13.33,1.12-19.36,3.33-5.46,7.53-11.35,13.98-6.51,1.28-.38,2.17.56,2.67,2.81.82-3.86,3.37-6.46,7.31-6.94-1.28-.3-1.85-.98-1.73-2.03-2.99-2.38-4.25-5.87-3.78-10.48l-.44-.68c-4.98,1.72-9.52,4.38-13.61,7.98-2.43.13-3.77,1.09-4.02,2.87-4.24,5.26-9.24,9.43-15,12.5-1.97.66-3.47.85-4.1-1.38-2.34-1.58-2.66-7.3-.99-9.48l3.62,3.23c4.56-.67,13.44-5.9,13.03-10.43-.08-.91-1.12-1.98-2.22-2.56-3.99-2.12-6.05-7.19-3.29-11.19,3.04-4.4,10.1-4.22,13.1.1,1.33,1.92.61,5.1,2.41,6.52.92,1.23,6.98-2.27,5.61-4.6-.66-1.12-2.95-1.39-3.12-3.46-.08-1.02.23-1.59.89-2.23l1.27.5c-.42,3.34,3.72,2.11,1.99-.28l.44-1.39c3.26.15,2.26,4.35,2.59,4.91,1.13,1.93,3.74.25,5.39-.15,2.67-.65,5.53-.55,7.62-2.38,2.82,2.04-5.63,7.99-4.62,16.3.32,2.62,2.83,5.38,1.41,8.13-2.55,4.95-5.3,8.46-10.14,10.94-2.6-2.52-5.68-3.57-8.68-2.15-.63.3-.98,1.21-.84,1.62.47,1.37,3.81,1.54,4.16,3.97.24,1.64-.05,2.95-1.43,3.55-3.68,1.59-5.47-2.64-6.42-2-4.87,3.24,3.23,10.95,3.16,16.84-.04,3.33-3.32,6.93-5.58,9.17l-5.07,5.03c-4.03,4-5.12,8.67-4.66,14.29,1.2,14.73,4.61,11.84,4.95,13.65Z"/><path class="cls-62" d="M37.17,238l1.34.71c1.4,3.88,2.18,7.8,2.35,11.75-1.44,8.98-2.57,17.88-2.4,26.93-.39,1.72-1.61,2.98-3.66,3.79,6.37-.1,7.9,11.18,7.8,16.13-1.9,2.89-1.99,4.97-.28,6.23,6.79-3.02,13.35,5.8,14.66,11.71l4,.87,11.06,7.03,10.51,2.78c.54.49.93,1.17,1.16,2.04,2.38.41,2.27,3.58.56,5.04l-.5.03c-3.96-2.86-8.42-5.1-13.38-6.72l-15.67-8.8c-2.62-2.72-5.1-5.55-7.45-8.51-2.66-1.12-5.22-2.42-7.68-3.89-2.07-4.06-3.46-8.59-4.17-13.59-4.7-10.56-3.5-21.67-.98-32.73,1.12-9.79.58-13.63-5.79-21.26-.35-.42-.37-.9-.14-1.44,1.34-2.37,8.15-.58,8.67,1.92Z"/><path class="cls-1" d="M28.5,236.08c5.39,4.21,5.04,6.58,5.98,8.73l1.47,3.38c1.52,3.5-4.84,31.19-2.55,35.34,1.8,3.25,4.43,12.72,4.43,16.05,0,4.65,2.84,6.47,7.01,7.23,2.62.48,5.27,4.02,6.6,6.14,2.43,3.89,5.26,5.21,8.82,7.22,5.6,3.16,10.83,6.52,17.18,8.46,2.52.77,5.06,2.42,6.32,4.38-4.55-2.73-9.76-4.17-14.6-6.84l-14.94-8.24c-3.17-1.75-5.99-8.83-9.81-9.67-8.09-1.77-7.08-8.47-10.44-18.52-4.85-14.53-.25-10.09-3.92-19.9-1.08-1.07-3.14.04-4.52-.73-2.1-1.18-2.11-5.04-.03-6.15,1.93-1.03,4.02.82,5.66.25,3.12-1.09,2.5-8.07,2.08-8.81-.3-.52-1.33-.53-2.18-.56-1.61-.07-2.48-.9-2.42-2.27.1-2.34,3.75-1.03,4.47-2.27,1.91-3.34-5.51-9.36-5.89-13.17.14-1.68.73-1.63,1.29-.05Z"/><path class="cls-1" d="M51.17,208.53c-.56.96-.47,2.06-.29,3.11.4.39.3.59-.28.63-.98,2.42-2.63,4.5-4.95,6.23l-10.13,12.04-4.51,1.97-.15.87c-1.56.43-2.95,1.17-4.18,2.23-.75.37-.88-.57-.67-1.12,1.65-4.43,5.18-6.99,8.62-9.73,7.52-5.99,11.79-14.54,14.1-16.67,4.71-4.35.66-5.17,3.09-6.45,2.05,1.43,1.6,5.86-.65,6.9Z"/><path class="cls-139" d="M86.96,307.81c.96-.54,1.71-.4,1.85.67-.56,1.67-.24,17.22.07,16.45,2.57-6.48,7.17-.44,4.99,4.31l-.08,5.02c-.49-.82-2.57-1.9-3.3-1.36-.88,1.31,0,3.08-.67,4.52-1.76-2.99-.61-5.5-3.2-5.82-1.16-.14-1.88.98-1.7,2.08-.36.31-.72-.41-.65-.68.48-1.74-.39-3.39-.56-5.04-.36-.41-.7-.83-.96-1.3s-.51-.9-.53-1.34c-.31-6.81-.48-13.82-.17-20.46.21-.47,1.02-.4,1.6-.18.43,1.42-.73,3.97.49,4.68l2.51,1.44c.6-1.14.16-2.1.3-3Z"/><path class="cls-63" d="M54.43,201.11c.44,3.18.39,6.34.99,9.48l1.47,1.11,1.77,9.07-.73,1.66c.84,1.85-.3,2.65-1.65,1.11-.56.1-.63-.13-.29-.64-1.65-.28-2.58-1.66-2.78-4.14-.25,2.23-1.14,3.86-2.67,4.9.68.95.32,1.23-.69.61-1.21,1.23-1.76,1.02-1.82-.71-1.16-3.33.91-8.14,2.58-11.28.01-.21.2-.43.28-.63-.21-1.03-.28-2.17.29-3.11.47-2.27.74-4.57.65-6.9.73-.39,1.91-1.14,2.6-.52Z"/><path class="cls-161" d="M43,229.33c1.73-.58,2.31.61,1.04,1.87.78.84.5,1.18-.58.74-.66,1.41-1.92,2.26-3.77,2.54,1.96.24,2.86.98,2.7,2.21.3-.48.47-.41.52.18,1.96,1.73.26,3-1.88,1.83-1.13,1.51-3.45,1.24-3.85-.7-2.81-.99-5.7-2.04-8.67-1.92l-1.29.05-.53-.53c.05-.53-.24-1.72.46-2.18,1.19-.79,2.68-.73,3.87-.91l4.2-2.04c2.13-.8,5.99-2.22,7.78-1.14Z"/><path class="cls-7" d="M111.73,167.08c-1.65,1.28-3.52.24-4.43-.59-1.11-1.02-1.93-2.65-1.35-4.45.64-1.99,3.81-3.22,5.42-1.92,2.15,1.73,2.68,5.15.36,6.96Z"/><path class="cls-195" d="M88.14,175.3c.9.88,1.66,2.16,1.19,3.26-.56,1.32-2.03,1.94-3.24,1.62-1.55-.42-1.62-2.34-1.64-3.7,1.03-1.01,2.27-1.24,3.69-1.18Z"/><path class="cls-141" d="M69.98,277.03c.04.2.44.43.59.57.17.82-.42,1.38-.71,2.04-1.57,3.13-5.28-1.88-1.75-2.6.56.2,1.29-.1,1.87,0Z"/><path class="cls-153" d="M379.83,266.98c2.11.62,2.74,4.2.52,5.03.4.78.49,1.77-.01,2.51.8,1.07,1.87,3.42.06,3.82.05,1.02-.36,2.2-1.26,3.55.71,1.11,1.12,2.2,1.23,3.25,1.68,2.39,1.46,5.39-.49,7.6-.87-.52-1.72-1.01-2.57-1.48-1.37,11.39-2.8,21.11-5.15,32.38-.88,4.2-8.32,29.15-10.6,30.76-.14.1-.41.01-.72-.13-.17,3.41-2.11,8.91-5.65,9.87-5.53-2.52-11.77-4.22-17.01-7.97-2.14-2.54-2.68-6.7-5.12-9.22-4.21-4.34-8.58-8.11-12.77-12.38l-8.38-8.53c-2.66-2.7-5.96-4.49-9.48-5.03-2.11-1.71-1.17-12.97-.1-14.29,13.98-9.26,25.48-20.55,34.48-33.88,4.15-8.34,7.54-17,10.17-25.97,10.28,1.9,16.85-4.88,21.76-12.98l1.56-.13c.44.31.87.64,1.23,1.03s.69.75.81,1.17c3.37,11.66,4.74,23.45,5.06,35.55,1.11-.19,1.49-1.44,1.16-3.74l1.27-.81Z"/><path class="cls-51" d="M393.38,283.47c.62,2.15.87,2.56.75,1.25l1.24-.84c3.75-1.05,2.37,5.16-1.24,4.97,3.27,22.57,2.18,46.39-5.69,67.88,12.71-25.05,14.47-52.42,9.46-79.61l.78-2.13c.1-1.81,1.14-1.77,2.55-.77,1.61,1.13,3.79,18.35,4.2,21.97,1.32,11.67,1.1,23.44-.25,35.11,4.68-21.4,5.27-43.37-.79-64.54l.5-3.02c-.17-1.14-.03-1.94.44-2.38,3.54-2.32,6.56-1.24,9.06,3.22,9.95,29.25,11.5,63.68,4.41,95.09-1.19,5.26-4.43,19.6-7.44,22.91-.41.46-.9.85-1.4,1.23l-26.66-9.23c-9.66-3.34-19.09-6.31-28.12-10.42,2.23-3.1,3.69-6.62,5.65-9.87,1.04-.3.79,1.26.18,1.15,8.69-17.57,14.7-37.16,17.25-56.65l1.33-1.02,1.38.79c.89,1.75-2.62,25.62-3.21,29.35-.08.5.15-.1.5-1.28,4.03-13.32,5.25-27.02,4.2-40.79,2.91-3.36,2.74-4.66.06-7.66-1.96-.62-1.76-3.11-1.47-4.91-.38-.12-.62-.54-.71-1.26.47-1.77-.39-3.47-.52-5.03-.68-.92-1.31-1.9-1.55-3.03-.81-3.86-3.4-17.76-2.9-20.38.11-.59.31-1.15.53-1.72-.21-1.84.62-1.92,1.85-.58.97,1.05,8.05,16.93,8.72,18.81,2.75,7.77,4.88,15.77,6.89,23.39Z"/><path class="cls-163" d="M357.14,201.14c.51,1.25.38,2.88.17,4.33-1.9,12.68-4.55,25.01-7.49,37.47,0,.02.16-.27.22-.4,4.31,1.32,8.27-.72,11.86-6.12l5.41-7.6,1.6-.14c1.93.42,2.82,3.76,1.38,5.1-4.54,7.49-12.11,17.18-22.71,13.91-3.59,13.67-8.26,26.96-18.22,37.43-8.01,8.41-16.58,15.57-26.04,22.28-.76,4.81-1.03,9.21-.89,13.64-.45,1.02-.59,2.38-.57,3.6l.09,6.35c.13,9.18,4.47,16.6,2.28,24.62-2.27.34-5.59-5.44-3.74-7.05-.41-.31-.81-.64-1.14-1.02s-.62-.74-.71-1.14c-2.33-11.02-2.64-21.93-1.66-33.14-13.5,8.08-26.93,15.4-43.18,12.85-9.85-1.55-18.44-5.76-27.01-10.73l.41,11.15c-.97,1.48-1.41,3.42-1.31,5.81l1.18,1.15c.08,3.91-2.83,21.17-5.78,22.6-.54.26-1.1.28-1.68.13-.32-4.84.32-9.61.98-14.71l.94-7.23c.2-1.54,1.37-12.97-.24-12.59l-1.28-1.08c.34-3.55,0-6.79-1.02-9.72-13.5-8.7-25.25-19.18-35.26-31.44-5.63-8.93-9.85-18.59-12.67-29-5.4,1.19-10.06-.86-14.23-4.45-1.79-1.54-5.19-4.51-3.91-6.76-1.73-.74.16-3.74,1.86-3.07l1.5-.3c.85,1.67,11.92,11.94,12.75,7.79l-4.99-23.36.32-2.25c-.68-1.98,1.5-6.64,3.64-6.98l1.21.84c1.9,11.29,4.27,22.63,7.14,34.02l-.22,2.18,1.76,1.46c3.93,14.11,9.65,26.91,20.77,36.85,9.74,8.7,20.03,16.71,30.87,24.02l2.09-.28c16.71,11.88,36.54,13.46,53.75,1.68l1.96.38,16.01-11.55c19.14-13.39,34.03-29.65,38.2-52.95l1.74-1.49c-.14-.66-.26-1.31-.29-1.97s-.04-1.26.1-1.85c3.47-15.22,6.85-30.04,8.7-45.05l1.38-.71c.25-1.51,4.85,2.74,5.05,3.32.58,1.67.28,2.33-1.12,1.21Z"/><path class="cls-206" d="M415.26,264.47c1.05.19,1.35.84.88,1.93,10.18,28.2,14.81,55.79,8.74,85.94-2.21,10.98-6.02,20.82-11.83,30.24-.57.93-.91,1.93-1.99,1.89-.31-.16-.76-.56-1.09-.67,11.47-27.94,15.16-64.18,9.32-94.12l-4.89-25.11c-2.77-1.17-2.18-5.04,1-5.12,3.43-.08,3.12,4.68-.13,5.01Z"/><path class="cls-186" d="M374.08,376.37c-.62.85-.8,1.91-.74,2.94l-8.52-3.72c-4.32-1.89-19.23-8.27-20.87-11.38,9.97,4.22,19.84,8.84,30.13,12.15Z"/><path class="cls-85" d="M339.52,372.61l-1.79,1.18c-.62.46-4.74-15.48-3.35-14.45l5.14,13.27Z"/><path class="cls-112" d="M152.93,239.21c2.54,4.62,7.13,8.52,12.44,10.09,2.2.65,4.52-.36,6.58-.08,5.16,14.44,6.82,23.05,17.15,34.99,6.67,7.7,17.2,16.05,25.74,22.04,7.38,5.17,6.14,3.15,6.46,15.42-4.87,1.14-8.97,4.26-12.65,7.99l-18.63,18.94c-2.86,2.91-3.57,7.2-5.75,10.69-7.58,3.93-15.53,6.77-23.1,10.05-1.24-.39-2.16-1.54-2.78-3.43-3.25-3.66-5.51-7.7-6.77-12.13-.86-3.3-.19-5.21,2.01-5.75,8,3.99,10.54-1.71,10.9-8.87,2.22-5.43,4.74-5.11,9.52-2.95,3.21.36,5.69-1.71,7.41-6.21l2.01-2.11c-1.26-5.44,4.88-7.06,5.82-1.32,15.7,1.85,9.48-9.7-1.59-7.94.42,4.32-5.58,4.94-4.64,1.23-1.59-1.86-2.44-4.38-2.56-7.56-2.67-.33-4.34-1.5-5.02-3.51-1.36-6.58-3.97-13.4-11.67-11.02-4.51-1.38-7.55,1.54-9.11,5.65-3.02,4.26-4.75,3.24-7.98-.18-2.71,0-4.4-1.6-5.08-4.79-.52-.13-.53-.33-.05-.61-1.04-3.01-1.35-6.2-1.32-9.39.11-14.85,3.1-32.23,8.73-45.71-2.04-1.71,3.33-7.45,3.93-3.51Z"/><path class="cls-32" d="M183.06,319.85c.4.89,1.46,1.16,2.31,1.12,1.62-.08.54-2.13.76-3.4,3.82-.79,14.33-.1,13.8,6.22-.43,5.05-7.87,4.71-10.98,3.93-1.35-.34-.9-2.62-1.86-3.34-.68-.51-2.21.28-2.59.86-.32.5.63,2.14.64,3.08-3,1.48-4.25,5.66-6.26,8.03-2.15,2.54-7.68.75-9.77-.94-6.23,5.24-1.68,5.45-5.03,11.3-1.02,1.77-2.11,3.41-3.58,3.71-5.33,1.1-5.88-2.58-7.89-.55-.42.42.13,1.07.12,1.72-.06,8.06,7.28,11.52,8.45,17.75l-3.26,1.41c-2.34.43-4.23.19-5.68-.71-2.84-2.53-8.21-16.35-9.13-20.57-.24-1.09.05-2.21.36-3.25-.57-.19-.55-.41,0-.67-.14-.69-.23-1.45.1-2.09,2.61-5.07,17.52-12,23.12-14.52,1.19.5,6.54-2.14,3.95-2.19-7.03-.12-9.33-.79-15.75-4.17-4.67-2.46-10.99-5.99-13.13-10.86-.58-1.32-1.19-4.22.59-4.56l1.32-.12c4.28,4.52,10.08,8.91,16.28,10.08-7.27-4.51-7.12-18.19,2.26-19.48,13.15-1.82,16,14.3,5.56,19.98-4.26-1.71-4.89-.44-1.9,3.79,4.94-2.33,10.31-3.25,16.12-2.75l1.08,1.21Z"/><path class="cls-150" d="M132.03,359.37c.86.17,1.41.81,1.65,1.91l7.9,14.28-.66,1.41c-5.32,2.18-10.76,4.14-16.3,5.67l-1.59-.68c-1.23-1.82-3.49-6.08-4.4-8.14-2.76-6.23-11-25.44-9.7-31.13.13-.56.34-1.1.58-1.63,2.17-2.63,7.28.19,9.31,2.34,2.83,4,6.39,7.29,10.69,9.86.78,2.19,1.62,4.23,2.51,6.11Z"/><path class="cls-202" d="M157.91,370.75c-4.46,1.93-8.98,3.86-13.75,4.9l-2.27-1.71c-2.99-4.99-6.17-11.94-8.05-17.46-.31-.9,0-1.91.3-2.83.51-1.21.54-2.52.09-3.91.22-2.69,1.92-3.5,5.1-2.43,1.58-1.12,2.96-1.49,4.13-1.1,2,7.25,4.78,14.17,8.33,21.08,2.53,4.94,5.18,1.1,6.12,3.45Z"/><path class="cls-23" d="M111.43,334.87c2.63.35,3.9,1.18,3.79,2.49-.65,1.32-2.29,1.74-4.93,1.26.42,1.17.17,1.98-.77,2.43,1.6,10.39,4.98,20.56,9.37,30.41,1.8,4.04,4.46,7.28,5.73,11.17-.34.09-.88.34-1.15.56-2.26,1.38-9.06-11.41-10.24-13.6-5.56-10.32-9.12-21.35-9.99-32.8,0-.22.21-.48.17-.69.81-.94,1.98-1.08,3.51-.42.62-2.68,3.37-3.24,4.51-.82Z"/><path class="cls-45" d="M134.14,353.65c2.52,7.69,6.4,14.78,10.02,22-.88.19-2.34.95-3.24,1.32l-7.51-13.65c-.63-1.14-1.81-2.75-1.37-3.96-1.68-1.25-.22-8.38,2.11-5.72Z"/><path class="cls-193" d="M187.43,369.45c.12-.56.17-1.34-.14-2.04-.14-.32-.6-.55-1.12-.51,2.48-5.43,3.25-10.95,8.33-16.84.22-.07.47.59.31.98l-7.38,18.41Z"/><path class="cls-138" d="M481.5,207.92c-.75-.95-.39-2.18,1.1-3.67,2.05-4.89-3.29-8.99-7.6-6.92-7.79,3.75-.87,11.46,5.29,9.68l1.21.91c-7.04,4.8-11.12-4.7-13.18-1.96-1.64,2.18-3.88,3.28-5.57,5.2l-5.93,6.72-4.49,5.35c-1.9,2.27-3.79,4.58-6.05,6.67l-17.96,16.6c-.34.32,0,1.66-.64,1.91-.24.09-.48-.32-.88-.28-1.73-.12-1.63-.79-.01-1.37-.32-.85-.31-1.82.13-2.63,2.74-1.79,5.02-3.89,6.84-6.31,9.69-8.86,19.48-17.84,27.13-28.32,4.48-.91,6.23-3.37,5.25-7.39,4.99-11.14,8.19-22.68,9.6-34.6.83-5.17,3.41-10.48,8.04-13.01-1.4-1.39-3.43-2.18-6.09-2.39l-.81-1.51-2.05-1.27c-3.78-6.86-8.06-13.54-13.86-18.88l-1.53-2.97c-2.1-.82-2.51-6.41-1.18-8.03-3.12.34-6.77-2.36-8.14-5.39-1.06-2.34-1.47-7.82,1.4-8.63-.05-1.93.62-2.28,2.18-1.12-.17,2.08-.81,4.4-.76,6.61.08,3.08,3.05,4.38,4.85,6.31,4.12,4.4,8.19,8.64,11.58,13.58l7.39,10.74c1.7,2.48,2.54,5.03,5.24,6.87,3.23,2.2,3.71,6.68,1.06,9.48-7.58,8.05-3.94,16.62-9.71,31.16-.61,1.54-2.49,3.84-.85,5.33,4.66,1.44,5.62-1.6,10.14,2.29,2.15,1.85,2.85,3.73,2.69,6.3-.19,2.98-1.82,3.56-3.81,4.92Z"/><path class="cls-30" d="M441.88,90.94c1.7,1.71,1.9,3,.62,3.89,1.13,2.69,2.93,4.54,5.39,5.56,2.45.3,4.4,1.18,5.87,2.65.06.4-.05.9-.09,1.31-.77.28-1.54.59-2.18,1.12-.73,1.12-2.07,1.82-4.04,2.11l-1.8,1.21c-.65,1.2-1.48,1.75-2.5,1.64.39,3.3-.28,12.57-4.78,8.22-1.11-7.5-2.2-11.71-10.53-12.51l-.51-1.43c-1.46-4.46,10.82,1.86,11.53-13.78.04-.81.42-2.61,1.78-2.22.6.17,1.31,1.63,1.21,2.24Z"/><path class="cls-138" d="M487.55,120.73c1.33,1.59,2.52,8.1-3.33,10.63-3.25,1.41-7.44-.74-8.65-4.11-.89-2.46.17-6.18,2.48-7.62,2.67-1.66,7.45-1.36,9.5,1.09Z"/><path class="cls-55" d="M422.38,234.34c2.5,1.8,3.86,5.6,3.16,8.59,1.59.08,2.01,1.35,1.25,3.84.09.43-.13.95.01,1.37.29.87.51,1.74.68,2.64-1.05.86-2.62,1.08-3.23,2.36l-1.4-.4c-1.08-3.07-2.03-6.12-2.85-9.15l-4.11-10.52.85-1.29c.8-1.02,2.66-1.06,3.77-.54,2.15-.12,2.85,1.21,1.87,3.1Z"/><path class="cls-19" d="M454.14,244.29c-2.87-.54-3.15-3.76-2.76-6.2.47-2.9,3.55-4.12,5.63-3.55,3.18.87,4.08,3,3.82,5.84s-3.22,4.56-6.69,3.91Z"/><path class="cls-138" d="M450.7,98c.71,1.96,2.77,2.95,3.07,5.03-6.49-1.36-9.93-1.35-11.26-8.21,1.16-.79,2.45-.07,3.87,2.16,1.57,0,3.01.34,4.32,1.01Z"/><path class="cls-28" d="M450.7,98c-6.6,2.06-5.77-2.34-8.19-3.17-.22-1.13-.81-2.74-.62-3.89,1.86,1.3,8.2,5.35,8.81,7.06Z"/><path class="cls-6" d="M416.75,231.78l4.7,12.01c.86-.74,2.01-1.97,2.73-.89.55.83-1.33,1.52-2.21,1.74-.04,3.14,1.7,5.77,2.29,8.5,1.95,8.96,3.81,17.91,4.6,27.04l-.04,5.55c-.95.78-1.52.4-1.98-1.02-1.53-7.85-3.28-15.66-5.92-23.22l.14-3.25-1.41-.23c-.23-2.86-1.24-4.89-3.04-6.08-.84-.45-1.33-1.36-1.45-2.72-1.13-.32-1.8-.91-2.03-1.77-.58-1.3-.04-2.59,1.62-3.86,0,0-1.05-2.62-3.14-7.85l.21-2.72c-.45.19-1.21.36-1.33.08-10.27-23.66-19.94-48.19-29.26-72.03-.04-1.22.57-1.57,1.63-.88l2.62,2.94,25.61,52.58c3.08,5.21,4.96,10.57,5.64,16.08Z"/><path class="cls-109" d="M421.07,258.24c3.44,8.92,5.47,18.24,7.29,27.68l.51-5.74c.52,5.9.86,11.94-.12,18.14-2.81-10.65-5.31-24.04-12-32.77-.17-.22-.57-.35-.58.05l-.02.81c-.38-.47-1.59-1.12-.88-1.93,1.49-.92,2.24-1.37,2.24-1.37.04-2.48.27-7.01,3.57-4.86Z"/><path class="cls-87" d="M409.21,17.52c.29,1.68.89,3.1,1.79,4.27.49,5.97,3.5,10.45,9.77,10.79l2.35,1.34c.18,0,.41.06.58.01l2.51.64c.99.8.45,1.36,0,2.38-4.28,1.07-8.3,2.66-12.05,4.77-2.35,3.51-4,7.42-4.95,11.72-.35.76.03,2.06-.85,2.64-4.26,2.77.74-13.97-9.09-17.28-6.8-2.29-12.49-1.1-10.1-4.21,1.98-.41,3.6-1.03,4.84-1.86,6.75-1,10.32-4.36,10.68-11.49l1.62-3.07c.02-.21-.04-.42-.03-.63l.55-2.47c.79-.4,1.62-.54,1.94.24.35.84.33,1.54.43,2.2Z"/><path class="cls-68" d="M389.18,34.59c1.02-1.33,2.86-.96,4.52-1.88.2-7.76,11.09-12.81,10.77-12.45l1.85-2.08c-.3,2.98-.65,6.12-1.78,9.22-2.2,6.02-10.3,6.57-15.36,7.2Z"/><path class="cls-182" d="M423.12,33.92c-4.03.09-8.75-.92-11.09-4.69s-2.27-7.85-2.83-11.71c.99.64.58,2.09,1.34,3.13,9.79,5.03,6.24,6.02,12.58,13.27Z"/><path class="cls-143" d="M426.21,36.96c-.43.98-1.44.43-2.32,1.05-4.83,3.38-6.33,7.92-9.36,9.29-2.84,1.28-4.11,3.57-5.31,6.16-.09-4.13,1.24-11.44,5.67-13.79,3.55-1.89,7.59-2.55,11.33-2.7Z"/><path class="cls-68" d="M406.28,17.55c-.27-1.02-.44-1.96.55-2.47,0,.86-.05,1.74-.55,2.47Z"/><path class="cls-182" d="M426.21,34.58c-.83-.13-2.15.35-2.51-.64,1.12-.33,1.76.03,2.51.64Z"/><path class="cls-78" d="M427.35,104.7l5.25,1.32c2.99.75,4.98,2.96,5.6,5.86l1.42,6.63c.11.5,1.58.19,1.54-.2-.12-.98,1.43-6.21,2.02-7.89l1.23.43c2.39,4.66,6.46,8.55,11.35,10.31l1.22,1.72c.38,8.64-2.3,22.82-10.78,26.76-1.73.8-5.71,2.43-6.66.47l-1.42-.58c-3.72-9.04-14.47-14.54-24.02-14.68-8.14-5.16-9.1-8.13-2.87-8.89,4.99-4.25,9.69-2.34,11.81,3.64,1.03,1.39,14.07,8.3,14.87,8.01.6-.21-2.26-5.48-2.95-6.52-6.12-9.21-26.41-15.61-36.96-17.74l-6.3-2.35c-1.78.18-3.46.23-5.03.15-1.62-4.33-2.99-8.75-4.38-13.16,2.14-.18,3.84,1.79,6.22,1.8,6.33.03,12.49.07,18.62,1.56l16.72,4.06,3.5-.73Z"/><path class="cls-148" d="M402.18,85.51c-.63,1.86-2.44,1.94-3.72,1.56-1.12-.33-1.85-1.79-1.73-3.14.09-.95,1.1-2.49,2.69-2.73,1.78-.27,3.43,2.34,2.76,4.31Z"/><path class="cls-168" d="M64.93,67.25c.92-1.21,2.66-.7,4.2-1.66,3.93-11.71,10.3-10.53,14.7-18.59.16,2.12-.52,4.15-1.15,6.49-2.8,10.43-7.1,12.28-17.75,13.76Z"/><path class="cls-168" d="M64.3,67.27c-.84,1.09-2.55.34-3.78.59,1.09-.86,2.39-.85,3.78-.59Z"/><path class="cls-168" d="M83.85,46.44c0-1.26-.54-2.95.62-3.78-.26,1.23.54,3.01-.62,3.78Z"/><path class="cls-81" d="M87.46,82.95c-.27.99-.71,2.3-2.11,2.03-1.44-8.14-7.3-13.34-15.71-15.46,11.52-3.75,13.64-7.9,16.35-18.1.97,1.97,1.27,3.69,1.81,5.46,3.4,11.18,13.47,11.19,14.01,12.57.67,1.69-10.75.48-14.35,13.5Z"/><path class="cls-174" d="M472.41,342.37c-1.56-4.8-4.12-8.59-9.87-10.24,5.29-1.67,8.21-4.94,9.88-10.7,1.57,5.4,4.5,9.36,10.56,10.51-5.1,1.65-8.46,4.5-10.57,10.42Z"/><path class="cls-37" d="M108.4,285.72c-.31,5.26-1.1,10.53-2.4,15.8.02,3-.66,5.56-2.04,7.67-.11,1.89-3.62,1.64-3.88-.16l1.15-8.8c-1.35,2.55-2.18,5.06-3.11,7.64-2.48,1.27-2.96-2-2.36-3.88-1.67-.14-1.62-.73-.04-1.26,4.04-7.59,7.23-15.58,12.93-22.45.32,1.94.19,3.82-.26,5.44Z"/><path class="cls-107" d="M92.59,299.66c.59.46,1,1.16,1.21,2.09l-1.71,9.02c-.4,1.64-.15,3.03.76,4.17,1.37.58,2.33,1.29,2.87,2.13.02,2.07-3.08-1.45-4.95.7-1.06,1.21-.39,2.47.07,3.4.52,1.06,2.61.64,3.22,1.54,1.16,1.71.61,4.93-.18,6.54.03-1.84.34-4.04-.58-5.92-.4-.82-1.75-.06-2.28.23-2.17,1.21.2,7.61-2.3,8.72-1.56-7.23-1.55-13.97-1.48-20.82.01-1.3,1.03-2.96-.28-3.64l1.77-11.83c1.95-.53,3.73,1.75,3.86,3.67Z"/><path class="cls-90" d="M95.72,302.73l.04,1.26c.3,2.01-.05,3.99-1.07,5.93l-.77,3.38c1.15.52,1.74,1.23,1.78,2.13v1.63c-8.59-2.08-2.67-10.74-3.11-17.41l.73-.02,2.41,3.1Z"/><path class="cls-205" d="M103.97,309.19c1.82.32,1.66,2.64-.1,2.98.56.16.52.39-.04.67l-.49,1.94c1.83.12,1.62,2.17-.16,2.46-.37.45-.5.91-.7,1.94-1.86-.62-3.27-1.94-2.98-3.85l.61-6.3,3.88.16Z"/><path class="cls-164" d="M98.12,307.87c-.91,2.5-.79,5.42-2.42,7.56-.81-.16-3.07-.74-2.98-2.04.25-3.41,1.76-6.53,3.04-9.4.31,1.45,1.24,2.91,2.36,3.88Z"/><path class="cls-25" d="M107.05,318.48l1.33.91c1.05,4.2.08,6.59-2.89,7.16,4.85.86,9.59,2.09,14.22,3.69l.48,1.41c1.78-.76,4.31,1.18,3.77,3.17l.54,1.44c-4.16,1.47-8.52,1.01-13.08-1.38-.91-.03-1.82-.03-2.74-.45-.34,1.1-.54,1.86-1.13,2.6-1.52-.16-2.85-.5-4.14-.91-1.31-6.18-.65-12.58-.24-18.87l.16-2.46.49-1.94c.01-.22.03-.46.04-.67-.03-1.04.72-1.56,1.64-1.35,3.6.82,4.01,5.57,1.54,7.65Z"/><path class="cls-179" d="M300.49,348.55c.68,2.5,2.41,4.94,3.74,7.05-.21.78-.03,1.69-.04,2.48l-.43,1.94c-3.41,19.79-9.35,38.93-15.86,58.33-8.05,24-16.84,47.12-26.6,71.4-12.17-29.5-39.81-105.39-41.67-133.56,4.62-5.54,5.79-16.85,6.28-23.88.1-1.9.34-3.68.72-5.33l.96-.1c20.23,14.9,45.03,31,71.15,20.82l1.76.84Z"/><path class="cls-163" d="M303.76,360.02c.11-.62-.39-1.66.43-1.94,0,.62.35,1.67-.43,1.94Z"/><path class="cls-64" d="M265.46,59.58c6.52,3.78,14.5,14.96,14.25,14.95.84.03,1.97.16,2.68-.48,1.94-1.74,4.38-2.36,6.24-3.57,1.6.91,1.64,1.63.18,2.75.92.74-.07.59-.06.54.2-1.3,8.49.81,10.11,1.33,6.49,2.09,19.02,9.62,22.24,15.59.37.69.32,1.51.21,2.26,1.76.88,2.17,1.71,1.23,2.48,1.68,2.19-1.34,2.78-3.01,1.9l-2.13-.87c-9.33-13.51-24.06-18.02-39.79-17.68-13.35-1.95-26.55-3.13-40.32-.99-8.14,1.27-15.65,3.48-23.43,5.81l-.88,1.81c-5.63,2.61-11.14,5.68-15.39,10.29-8.32,17.63-11.95,37-13.9,56.2l-.57,1.26c3.37-1.18,2.33,3.86.02,5.12.41.77.27,1.65-.41,2.65,0,0-1.03,6.56-3.1,19.69l-1.71,2.04c-1.4,1.23-1.48,2.5-.23,3.81l-.27,1.46c.17.41.29.85.18,1.28-1.39,5.57-4.57,15.23-7.46,20.11-.48.81-1.34,1.3-2.14,1.72-1.12,2.51-1.99,4.8-3.64,6.98-.07,2.07-.61,4.25-1.65,6.53,5.04,5.51,3.03,10.48-2.98,4.33-1.88,2.12-3.07,4.32-3.57,6.58l-1.38.69-1.86,3.07c-.72-.39-1.56-.3-2.09.56l-1.84,2.95c-.74,2.34-1.71,4.63-2.9,6.87-10.86,14.97-19.26,30.61-21.63,49.33l-1.58,2.03c1.76.26-.02,7.89-.51,8.69-.85,1.38-1.51,1.68-2.18.07-1.4.1-1.47-2.76-.14-3.05-1.05-.8-1.22-1.94-1.13-3.22.23-27.07,15.31-48.99,30.07-70.37,1.84-2.67,3.55-5.43,5.18-8.23l2.44-1.82c13.82-21.82,19.52-43.99,21.84-70,1.39-15.56,4.13-30.31,8.82-45.23,4.39-13.95,11.38-26.33,21.58-36.8,14.86-15.26,37.96-22.21,56.61-11.41Z"/><path class="cls-151" d="M173.79,138.23c1.65,0,1.33,2.17-.15,2.46l-.54,3.82c1.32.53.79,2.67-.02,3.68-1.04,4.4-.83,8.93-1.12,13.89-1.15,19.81-5.64,38.73-13.96,56.7-.68,1.47-.8,3.14-1.38,4.23-3.5,6.58-7.82,12.68-12.38,18.93-12.9,17.69-25.19,43.19-24.18,64.72-.65,1.73-1.35,1.28-2.12-1.35-1.24-24.75,4.16-41.94,17.31-62.93,12.63-20.17,26.41-39.38,30.52-63.77l7.35-43.67c.98,1.19.47,2.36.68,3.3Z"/><path class="cls-10" d="M120.65,250.05c-.41-6.14,1.7-11.95,3.63-18.02,3.36-10.57,7.76-20.04,12.92-29.81,8.9-16.86,13.5-34.71,15.46-53.56,1.15-11.03,2.06-21.7,5.87-32.14l-2.78,37.25c-1.29,17.28-6.23,33.73-14.27,48.98-4.36,8.28-8.98,15.83-12.58,24.46l-8.26,22.84Z"/><path class="cls-147" d="M145.44,118.44c-1.04,3.82-1.21,7.05-3.25,10.42,3.15-26.77,11.11-49.63,31.18-68.84,6.65-6.37,13.81-12.1,22.98-14.88-7.57,6.33-14.88,11.34-21.34,18.46-14.17,15.62-23.97,34.25-29.58,54.83Z"/><path class="cls-121" d="M173.08,148.2c.26-1.1-.15-2.52.02-3.68l.54-3.82c-.13-.8.32-1.68.15-2.46,1.34-2.99.38-6.62.84-9.92.84-6.11,3.4-11.63,4.89-17.54,3.94-15.64,13.79-34.38,26.51-44.13.15,2.94-2.27,3.75-3.72,5.36-25.38,28.38-24.73,66.19-28.1,75l-.52,1.37c-.08.21-.48.4-.61-.17Z"/><path class="cls-86" d="M117.93,305.31c.55.68,1.21,1.33,2.12,1.35l.14,3.05c1.86,1.06,1.69,3.02-.15,4.02.46,4.57-2.12,6.55-7.75,5.96-3.16,1.18-4.91.78-5.26-1.2-.14-1.89.63-4.08-.39-6.07-.5-.65-2.14-.15-2.79-.24l.1-2.98c.27-7.87,2.32-15.78,4.44-23.47.29-.22.64-.09.74.11.57,1.08-1.62,16.97-1.81,21.38-.24,5.35,8.65,4.04,11.01,2.74.05-1.97-.34-3.28-.41-4.66Z"/><path class="cls-147" d="M186.67,76.08l-11.5,18.01c2.76-15.22,11.33-29.39,25.91-36.25l-14.42,18.23Z"/><path class="cls-110" d="M311.24,65.15c5.74.41,11.16,3.01,16.52,5.48,4.61,2.13,7.94,5.14,11.11,8.51.9,1.16.86,1.97-.14,2.41-14.23-9.84-30.93-15.84-47.68-8.02l-2.23-.31c-.11-.91-.18-1.83-.18-2.75,6.61-4.3,14.7-5.89,22.6-5.33Z"/><path class="cls-3" d="M282.47,37.07c7,16.07.52,32.81-1.7,31.21-.38-.27-.55-1.05-.35-1.71,5.56-17.97.4-26.58.72-30.32.02-.2.29-.3.53,0,.18.22.61.38.8.82Z"/><path class="cls-216" d="M357.62,80.31c2.52.85,5.31,2.17,7.7.7,2.63,5.83,6.4,11.27,7.94,17.65-.23,1.27-1.85,1.61-2.91,1.15-4.12-1.8-11.04-9.52-13.33-13.67-1.26,2.63-3.07,4.94-5.4,6.69,1.97,3.9.29,6.44-3.61,3.24-1.54,2.62-3.51,4.76-5.9,6.43,9.52,9.43,14.28,14.14,14.28,14.14.38,2.74,1.32,1.71,2.81-3.09,3.02-.19,6.02-.19,9.01,0,1.21-1.28,2.53-2.49,3.95-3.62,2.26-1.23,3.96-1.24,5.12-.03,1.01,1.87,1.65,6.1,2.42,8.12-.59,1.05-1.7,1.5-3.36,1.36l-1.84.49c-3.23,2.3-6.63,3.75-10.17,4.35-.1-.55-2.59-3.57-2.5-3.38.32.63.49,1.05-.22,1.58,1.12.4,1.17.94.02,1.25.95,4.11-3.99,3.47-6.8,2.6-5.72-3.36-11.03-7.46-15.92-12.3-.87-.57-1.65-.28-2.32.88-5.63,1.05-5.78-5.69-2.06-8.74-2.11-3.34-1.98-6.21.41-8.6-.16-2.39.34-4.08,1.49-5.08l1.28-.59c1.35,1.51,2.01-1.19.4-.79l-.9-1.23c-1.68-4.56,5.76-1.61,7.94,0,.91-.54,1.68-.23,2.31.95-.64-.88-.7-1.48.27-2.23-.19-.65-1.12-1.57-1.05-2.37,2.19-7.7,9.89-3.44,9.79-6.46.45-.56.82-.36,1.12.59Z"/><path class="cls-189" d="M338.87,79.14l8.88,9.41c.28.96,2.14,3.04.7,3.83-1.25.69-2.61-1.7-3.29-2.55l-2.43-1.11c-7.03-9.65-17.53-12.21-29.15-11.82,4.7,3.06,8.93,6.61,12.71,10.65,5.58,5.62-.03,10.48-4.94,5.39-7.9-10.07-18.82-17.39-32.18-18.55-1.21.29-1.42-.55-.33-1.16,15.56-8.02,34.79-5.12,47.75,6.79.55.5,1.28.66,1.64.48.5-.25.53-.93.65-1.36Z"/><path class="cls-12" d="M357.62,80.31c-.39-.13-.71-.49-1.12-.59-5.26-9.29-12.5-16.72-21.36-23.9,10.13-1.82,21.61,16.24,22.49,24.49Z"/><path class="cls-82" d="M345.16,89.83c-3.68.67-6.92-3.11-7.94,0,1.27,1.33.97,2.16-.78,2.61-.18,2.14.48,4.53-.83,6.61-.46.74-1.43,1.19-1.6,1.88-.36,1.51,1.86,2.75,1.78,5.41-.07,2.08-3.55,2.47-2.87,5.6.19.85,1.47,2.38,2.6,2.07.89-.24,1.23-1.51,1.9-1.55.89-.06,1.76.07,2.53.73l8.48,7.36c3.17,2.75,6.35,5.5,11.06,4.99,1.14-.12,2.09-.84,2.14-1.87,2.49,2.92,1.46.5-.02-1.25-.88-1.52-1.97-3.53-.62-5.45l2.99,6.07c6.79-.42,7.45-5.67,15.72-5.03,3.99,10.49,6.68,21.49,9.52,32.73-.39.83.23,1.7.62.69.51.05,1.28.16,1.36.53.55,2.52,3.96,20.27,3.37,21.17-.98,1.49-1.62,2.1-2.86.53-6.34-11.24-10.65-23.44-14.21-35.78,3.39,11.66,5.09,17.49,5.09,17.49l-.98,1.03c-.43,1.2.15,2.54.81,2.56,1.25-.32,1.43.29.47,1.21-2.22-1.19,4.88,14.34,5.49,15.84l23.45,56.99.25,2.44c-3.75,3.87-6.95,8.09-9.58,12.66-.93,1.3-1.81,1.92-3.06.68l-1.93-1.44c-7.87-18.15-19.47-34.42-31.03-50.36l-5.51-9.33c7.53,15,15.45,29.8,23.77,44.41,1.91,2.82,2.76,5.68,2.54,8.58-.41.27-1.11.58-1.28.34-15.85-22.12-31.42-47.28-39.77-73.74-5.09-17.68-10.17-35.28-15.25-52.8-2.89-6.09-4.33-9.14-4.33-9.14-.67.61-1.13,1.02-2.19.84-.21.54-.43.55-.66.02-1.78-.35-2.15-2-.64-3.04-.9-1.15-1.04-3.25.72-3.49-.42-1.04-1.03-2-1.81-2.86l.51-1.34c-.46-.74-.66-1.77-1.23-2.48,2.03.92,4.65,1.48,6.53-.38-4.02-8.54-10.84-10.57-17.44-16.73,6.43-.61,12.39.07,18.34,1.48,7.47,1.76,12.14,7.22,16.4,12.52Z"/><path class="cls-89" d="M387.16,114.22c1.74.31,3.84,5.31,2.07,6.34l1.33.37c2.95,20.96,6.67,42.09,11.18,63.38,2.19,7.68,5.32,14.96,9.38,21.82l7.39,15.65.15,2.94c2.18-.6,3.43,5.51,1.87,6.52-.91,1.13-2.6,1.44-3.77.54-3.08-7.88-6.68-15.49-10.55-23.33l-13.67-27.7c-3.45-6.99-6.79-13.64-9.64-20.57-.16-.4-.27-.81-.47-1.21-.93-.2-1.18-1.65-.81-2.56-2.04-6.01-8.3-24.98-6.37-30.98,5.15,18.05,9.02,32.7,18.24,48.82l-3.63-22.8c-1.94-12.18-3.48-24.42-6.36-36.43,1.07-.97,2.39-.2,3.67-.79Z"/><path class="cls-102" d="M373.26,98.66c-.41-1.7,4.2,11.58,4.03,11.25-8.49,1.46-5.42,3.1-7.93,4.55-1.35.78-2.96.19-4.33.11-1.8-.11-3.49.84-5.31-.27-.24,2.89-.77,4.86-3.52,6.71-.11-4.34-2.37-5.75-5-7.66-4.27-3.11-7.02-7.35-11.39-11.11,7.84-3.18,5.73-11.05,11.15-5.43.9-1.68-.59-2.77-.76-4.63,2.96-1.76,4.8-4.54,6.14-7.55,1.97-.44,2.07,2.26,2.84,3.14,3.29,3.72,6.87,6.91,10.46,10.34.97.92,2.69.34,3.62.55Z"/><path class="cls-198" d="M439.54,150.12c-.08,1.82-5.36,3.79-5.79,1.38-.63-.94-.17-1.78,1.37-2.51-3.96-8.42-12.33-12.53-21.57-12.68-4.8-2.58-7.23-6.02-7.28-10.3,4.18-1.55,5.24-3.23,3.19-5.03-6.41-2.43-13.01-4.42-19.79-5.98-1.18.3-2.02.04-2.51-.79-.1-.91-.17-2.21-.49-3.05,1.32-1.39,4.07-2.03,6.18-1.07,9.56,4.36,14.83,2.71,25.95,8.48l6.29,3.26c13.46,6.98,11.38,11.78,14,14.21.46.43.45,1.83.2,2.28-.32.57-2.05.76-2.83.32-3.96-2.22-7.69-4.45-11.89-6.23-4.26-1.81-2.75-5.88-6.54-7.2-4.37-1.52-4.89,2.87-8.38,1.83-.95-.28-1.91.24-2.13.83-.87,2.33,2.54,2.35,5.38,5.36,2.29,2.44,5.39,1.32,8.28,1.91,4.14.84,7.5,3.78,11.07,5.83,3.62,2.07,6.59,5.26,7.3,9.14Z"/><path class="cls-141" d="M70.66,237.42c1.1.67,1.06,1.62-.1,2.83-6.22,7.04-10.97,15.57-8.61,25.16-.8,4.72.77,8.99,2.72,13.19,1.39,3.48,2.98,6.24,6.46,7.75,2.16.96.82,5.36,0,7.27-2.22,5.15-5.49,6.02-10.61,7.07,8.44.39,11.16,5.62,12.08,13.33.58-4.56,1.11-8.63,5.34-11.22,1.6-.98,4.64-2.43,5.81-.58.04.78-.34,1.68-.11,2.45-1.01.78-.35,2.37-.39,3.75-.17,6.76-.2,13.16.45,19.53-1.85-1.68-11.37-3.09-12.49-3.82l-10.25-6.61c-1.51-.98-3.26-.69-5.19-1.3-.18-4.33-2.97-6.99-5.76-9.85-5.12-5.25-6.5.4-9.18-2.41-3.57-3.75,2.72-5.2.14-11.88-1-2.59-1.25-5.46-2.65-7.95-1.83-3.23-5.14-.23-4.77-3.03.34-2.59,3.66-.58,3.73-4.75l.16-9.84c.1-5.98,2.23-11.72,2.19-17.68-.03-3.84-2.25-7.3-2.47-10.85,1.11.39,2.82.2,3.85.7,1.69-.44,3.34.22,4.96,1.97,1.22.95,1.69,2.19,1.42,3.74l1.13.54c2.62,6.62,4.2,13.58,4.74,20.87.44-6.42,1.63-12.71,3.31-18.97,1.06-3.95,3.79-6.77,7.35-8.57,1.73-.88,5.53-2.6,6.73-.86Z"/><path class="cls-88" d="M73.69,285.72c1.19,3.33,2.67,6.5,4.43,9.52l2.02,1.69c1.77.28,3.16.82,4.16,1.61.43,1.03,1.67.95,2.62,1.94-.65,1.1-2,1.59-3.15,1.75-11.82,1.71-8.41,10.92-10.59,13.56-2.55,3.09-1.34-5.01-4.13-9.64-3-4.98-9.31-3.38-10.26-4.95-1.87-3.07,6.7-.78,10.02-5.79,1.81-2.73,2.31-6.04,2.33-9.06-1.54-1.05-1.13-1.83.67-1.7.77.46,1.18.35,1.88,1.07Z"/><path class="cls-127" d="M84.56,294.64c.29,1.31-.18,2.59-.26,3.89-6.75,1.87-10.81-6.92-10.61-12.81l4.1,4.22c2.01,2.07,4.53,3.29,6.77,4.7Z"/><path class="cls-46" d="M78.14,236.11c-1.83.71-2.39,2.57-3.45,4.23-2.87,4.47-10.84,7.61-11.5,19.02-.11,1.92.92,3.74.51,5.73-.46,2.28.36,10.5,4.41,11.94-.11.59-.4,1.41-.15,1.85.42.76,1.3.7,1.91.75-.84,1.9.19,3.96,1.95,5.02-.13.55-.66,1.12-.67,1.7-5.26,2.72-9.11-11.7-10.74-15.48.57-3.99.38-7.64-.55-11.39.84-7.07,3.92-13.23,8.53-18.53,1.01-1.16,1.9-2.28,2.28-3.53,1.67-2.35,5.1-2.93,7.48-1.31Z"/><path class="cls-119" d="M96.38,199.78c-2.94,1.95-4.79-2.59-5.45-5.2-.77,3.58-2.92,6.16-6.41,7.4,1.96.56,5.07,1.85,3.61,3.95-1.94-.26-5.1-1.48-6.9-.01-5.15,4.2-7.95,10.3-10.13,16.32-2.11,5.82,3.22,7.39,1.93,9.57-1.26,2.52-8.06-.43-10.17-1.65l-.47-1.47c-2.19.41-5.74-4.52-4.45-6.27-1.53-3.75-1.76-7.91-2.52-11.84,4.12,2.89,12.84-6.49,15.92-9.47,1.45-1.4,2.85-2.29,2.5-4.89,1.54-.55,3.19,0,4.28-.85,4.58-3.54,9.11-7.15,15.01-8.27,2.47,4.82-1.81,7.2,3.24,12.67Z"/><path class="cls-177" d="M73.03,231.81c2.36,1.78,7.51.09,6.84,3.39-.15.75-.99.63-1.72.91-2.54.28-5.03.7-7.48,1.31-5.95,1.49-10.98,3.02-13.09,10.34-1.69,5.85-2.58,11.77-2.88,17.9-.06,1.25-1.32,1.53-2.02,1.45-1.04-.11-.87-.98-.98-2.02-.78-7.23-1.55-14.27-4.3-20.67-1.15-2.55-.82-3.39,1-2.51,1.53-.72,1.73-.22.82,1.17,2.23,1.47,3.55,3.89,3.96,7.24l1.88-6.55,1.61-.45c-1.53-2.09,3.67-6.99,5.79-5.91.47-1.75,1.94-2.72,4.41-2.91-2.06-.38-3.33-1.28-3.81-2.7-1.54,1.11-2.47.17-1.72-1.47-1.72-1.57-.76-2.95,1.04-1.64,3.6,1.18,6.82,3.27,10.63,3.12Z"/><path class="cls-75" d="M96.38,199.78c1.22.31,2.48.96,3.48,1.58s-.68,1.66-1.41,1.72c-7.9.74-5.6,9.13-8.06,8.34-1.05-1.9-1.13-3.97-2.27-5.49-2.04-3.44-5.67-2.38-6.68-3.97-1.37-2.14,6.89,1.16,8.43-8.69.06-.39.77-1.36,1.15-1.36,1.37,0,.71,6.68,5.35,7.86Z"/><path class="cls-11" d="M76.64,185.78c-1.12,2.51-2.98,3.5-5.1,3.39-2.37-.12-3.87-1.85-4.12-4.48s.56-4.27,3.05-5.37c1.58-.69,3.51.02,4.62,1.15,1.29,1.3,2.46,3.26,1.54,5.31Z"/><path class="cls-146" d="M48.03,223.55c1.2,2.07-2.68,6.49-5.03,5.78-3.42,1.47-8.18,2.61-11.98,3.18,1.04-.96,2.26-1.25,3.29-2.47l10-11.9c1.93-2.3,4.35-3.95,6.3-5.87-.22,3.82-1.32,7.63-2.58,11.28Z"/><path class="cls-146" d="M50.88,211.64c-.77-.75-.64-2.54.29-3.11-.21,1,.1,2.12-.29,3.11Z"/><path class="cls-187" d="M56,222.89c.11.2.2.43.29.64.32-.02.64-.01.93.08.39.12,4.3,5.84,4.13,6.71.62.36,1.08,1.18,1.72,1.47,2.09,1.2.85,4.19-.6,5.6-2.03,1.66-4.53,3.57-5.79,5.91-1.79,1.75-6.06,2.47-7.46-.24-.24-.41-.61-.76-.82-1.17-1.82-.27-5.68-3.12-5.5-5.03-.15-.09-.35-.1-.52-.18-1.32-1.55-.87-3.87,1.07-4.75.12-.2.37-.63.58-.74.16-1.35,1.04-2.58,2.63-3.69.92-1.66,1.98-2.75,3.19-3.26.11-.23.48-.45.69-.61.94-2.46,3.95-2.75,5.46-.76Z"/><path class="cls-66" d="M56,222.89c-1.84.28-3.89-.37-5.46.76l2.74-10.18c.96,3.5,1.22,6.66,2.72,9.42Z"/><path class="cls-66" d="M49.85,224.26c-1,2.94-3.06,5.5-5.82,6.94l-1.04-1.87c1.44-1.38,4.35-3.81,5.03-5.78.64.15,1.25.38,1.82.71Z"/><path class="cls-66" d="M62.39,228.69c-.77.15-1.12.9-1.04,1.64-2.51-1.47-4.03-4.11-5.07-6.79.66-.2,1.31-.49,1.65-1.11.96,2.35,3.05,4.2,4.45,6.27Z"/><path class="cls-66" d="M48.4,241.9c-.85.53-.93,1.59-1,2.51-1.15-2.66-4.17-4.1-6.38-5.71,1.04-.06,1.89-.75,1.88-1.83,2.15,1.32,4.34,2.76,5.5,5.03Z"/><path class="cls-66" d="M43.45,231.94c-.59,1.46-.21,3.34-1.07,4.75-1.98-.89-4.24-.85-6.14-2.23,2.61-1.05,4.9-1.88,7.2-2.51Z"/><path class="cls-175" d="M387.28,240.64l1.73.83c2.38,4.39,4.4,8.93,6.06,13.62l-.86,1.77c.41.88,1.35,4.71,1.03,5.1-.74.91-1.85.63-2.74-.03-4.78-11.72-11.04-22.56-18.77-32.53l3.02,10.29-.84,2.15c1.55,8.34,3.23,16.68,3.92,25.13l-.11,5.11c-1.06.56-2.13,1.01-3.51,1-.5-13.58-1.62-26.92-5.93-39.31-.45-1.3-1.09-3.74-1.38-5.1l-1.67-1.72c-1.6-5.54-3.15-11.07-4.67-16.59-1.74.63-3.66-2.84-3.03-4.4-1.85.11-2.65-1.5-2.4-4.83,3.68,2.28-6.58-6.13-3.93-4.53-1-.32-1.41-1.4-1.23-3.24-4.59-10.12-8.75-20.56-11.62-31.33.32-2.65-.38-5.2-2.11-7.66l-9.76-35.29c-1.28-3.73-2.78-7.36-4.51-10.91l.49-2.05c.22-1.1,1.73-2.48,2.91-2.16,2.94,4.74,5.14,10.35,6.67,15.83l9.33,33.36c7.63,27.3,14.07,42.17,29.65,65.81l14.28,21.66Z"/><path class="cls-71" d="M379.88,292.74c1.91.36,1.58,4.71-.28,5.03-.75,13.35-9.87,46.41-18.48,58.44-.5-.8-.17-1.41-.27-1.92.32-.53,1.12-.9,1.38-1.76l7.28-24.07c3.79-12.53,5.65-25.06,6.62-38.12.06-.81,2.28-.18,2.78.23s.96,1.26.97,2.17Z"/><path class="cls-54" d="M379.6,297.77l.28-5.03c.14-2.52.39-5.06.49-7.6.42-.78,1.1-1.48,2.07-2.08l.42-1.35c-.56-1.23-1.38-2.35-2.46-3.36.03-1.27-.16-2.55-.06-3.82.13-.61.37-1.03.73-1.26.82,6.51,4.55,3.32,3.77,10.25-1.36,1.4-1.17,2.67-1.03,4.65,1.41,19.5-2.55,38.86-11.34,56.43.08-5.21,2.51-9.3,3.52-14.06,1.81-8.58,2.38-17.03,3.35-25.71.28-2.5.72-4.79.27-7.06Z"/><path class="cls-91" d="M355.69,296.76c-3.17-1.28-.27-9.19,1.19-9.6.79-.22.92,1.27,1.29,1.59,1.98.36,3-2.15,4.43-3.07,2.03-1.31,5.08.6,6.49,1.84,1.83,1.61,2.08,4.32,1.76,7.53-.34,3.4-6.85,7.98-9.97,5.85-2.02-1.76-3.09-3.29-5.19-4.14Z"/><path class="cls-9" d="M359.36,302.68c-1.87,9.91-8.6,31.23-15.77,39.11.45-2.95,1.6-5.57,2.66-8.47,4.04-10.99,7.71-21.75,9.93-33.21,1.5.13,3.43,1.23,3.18,2.57Z"/><path class="cls-14" d="M362.14,283.1c-.07,1.57-2.83,2.36-3.73,1.53.72-8.95.8-18.16.66-27.03-.06-3.55-.57-6.66.22-10.22,3.04,8.96,3.3,25.07,2.86,35.72Z"/><path class="cls-190" d="M380.38,285.15c-1.34-.31-2.54-2.18-2.48-3.32.09-1.56,1.25-2.75,2.5-3.48,1.99-.17,3.7,1.44,3.71,3.38s-1.7,3.88-3.73,3.41Z"/><path class="cls-61" d="M336.57,302.62c.4-.9,1.79-.52,2.13-.11.31.37.33,1.45-.17,2.01-.32.37-.76.93-1.49.31-.46-.39-1.03-.96-.48-2.21Z"/><path class="cls-190" d="M381.06,273.27c-.04.51-.21,1.07-.73,1.26.06-.8-.19-1.75.01-2.51.51.23.65.75.71,1.26Z"/><path class="cls-201" d="M399.44,248.78l1.88,1.36c1.55,3.74,2.96,7.53,4.23,11.38l-.66,2.23c6.8,25.13,6.54,40.31,1.86,66-.99,5.45-2.08,10.37-4.34,15.23l1.39-12.61c2.4-21.81,1.37-34.5-2.87-55.89-.12-.59-.41-1.41-.84-1.66-.33-.18-.98.22-1.41.18l-1.32.07c-.88-1.83-1.2-3.97-.96-6.41-.8-3.94-1.53-7.87-2.19-11.79-1.23-5.81-4.69-10.8-6.93-16.23-7.99-19.32-22.05-37.3-30.54-59.94-.68-1.82-1.42-3.6-1.08-5.34,4.82,8.18,8.39,16.42,13.95,23.87,10.27,13.8,23.83,34.02,29.83,49.55Z"/><path class="cls-212" d="M394.21,256.86c1.16,1.32,4.07,11.98,3.54,14.18-.59,2.44.62,2.78.92,3.95,1.71,6.49,1.72,13.28,2.54,20.27,1.59,13.51.46,26.48-3.3,39.54-3.01,10.44-6.46,20.4-12.64,29.97.26-5.03,2.42-9.07,3.8-13.76,6.12-20.77,7.19-42.07,3.28-63.27,1.9-.16,3.29-.14,3.64-1.07.38-1.02.58-2.51-.62-2.79-1.09,1.33-1.52,1.24-1.99-.41-.82-.03-1.88-.44-2.09-1.61-1.5-8.78-3.88-17.09-7.66-25.14l-7.25-15.43c-.45-.22-.53.33-.48.56-1.17-6.29-3.68-12.16-5.33-18.82,5.91,7.32,11.74,14.56,15.73,22.94l7.58,15.94c1.08-1.78.62-3.65.33-5.05Z"/><path class="cls-74" d="M413.14,247.44c.73.7.66,1.58-.22,2.64l.33,1.08,3.37.77c.38-.27,1.5-.88,1.88-.55,1.77,2,1.73,4.69,2.57,6.87-4.61,1.09.02,6.84-5.81,6.23.41-.47,1.09-.76,1.31-1.24.32-.7.5-2.11-.34-2.39-1.25-.43-2.04.23-2.35.92-.46,1.05.34,1.92.52,2.82-1.53.37-2.09-1.04-3.11-2.17-1.84-2.05-5.31-.78-6.39,1.34-1.33-4.91-3.6-10.17-5.45-14.97,1.47-.3,2.36-1.63,2.98-3.14,2.15-5.26,8.04-8.07,9.41-12.64,1.42,3.45,3.13,6.9,4.3,10.82-.91,1.4-2.3,2.27-3,3.62Z"/><path class="cls-98" d="M395.37,283.89c-.08.78.38,2.05-.57,2.73-.86.62-1.94-.32-2.16-1.05-.18-.62.25-1.39.74-2.1.69.02,1.33.26,1.99.41Z"/><path class="cls-169" d="M318.88,100.46c.83-.07,1.42.52,1.77,1.76,1.03.03,1.86.33,2.49.9.28,1,.55,2,.64,3.04l-.31,1.39c-1.49.32-2.66.98-3.49,1.99,6.21,12.3,10.21,25.95,12.71,39.15l-1.31.77-2.08.21c-5.41-3.2-11.26-4.33-17.48-3.82-6.69.54-26.29,2.62-29.63,8.34-.84,1.44-1.36,4.33.15,5.2l7.82-.85,1.58.93c2.45-.38,2.21.85.72,2.52-8.64,2.69-13.01,14.46-8.39,21.95,1.97.82,3.1,1.92,3.39,3.3l.44,1.59c-2.55,4.08-4.09,8.7-4.8,13.44,1.74.62,3.4,1.54,4.98,2.76l-.18,1.6c1.8.73,3.12,1.6,3.98,2.6,1.07-.38,2.68-.08,2.4,1.15,2.46,1.15,3.23,2.65,2.32,4.51-2.42,3.54-5.4,6.74-8.94,9.6-.94,1.49-1.17,3.84-1.15,5.6.03,2.29,4.81,10.75,6.66,12.46,9.08,8.39,17.46,9.59,29.26,8.95,4.64-.25,8.7-.56,12.45-3.68,1.6-.65,2.81-1.09,3.2.94.2.49.37.98.46,1.49s.16.98.03,1.38c-8.62,26.55-29.3,44.51-51.23,60.56-4.78,2.49-9.3,5.54-14.85,7.2-7.99,2.39-16.49,2.51-24.48.17-6.93-2.03-12.53-5.93-18.46-9.16-23.21-14.81-42.59-34.91-50.41-60.85l.82-1.33c-2.08-.19-2.18-2.77-.69-3.96.24-1.39,1.14-1.49,2.38-.99,5.99,4.7,12.39,7.48,19.2,8.33,1.73-.15,8.25-1.39,9.75-1.97,1.2-.46,11.94-6.79,12.4-7.35.94-1.14,2.07-11.48,1.61-13.42-1.01-4.22-5.6-10.15-8.51-13.28-1.13-1.16-1.95-2.24-.36-3.24.19-1.25.73-1.32,1.24-.16l2.57-.43c.11-.56.3-.55.58-.02,1.87.11,3.37-.47,4.49-1.73.16-.5.53-1,1.11-1.5-.48-.32-.67-.71-.46-1.21,3.72-1.14,6.62-3.04,8.69-5.7.09-.75.28-1.01.57-.78-1.32-4.45-3.14-8.72-5.45-12.82l.59-1.37c-.75-1.52.26-2.32,3.03-2.38,3.56-3,3.95-7.24,2.34-11.42-1.09-2.83-3.13-7.39-6-8.48-1.27-1.13-2.68-2.41-.76-3.49.6-1.68,1.05-1.7,1.87-.07l1.91.52.13-.85c4.36.04,2.43-6.21-.44-7.84-8.44-4.8-25.53-5.88-35.27-5.5-1.93.73-3.46.67-4.58-.18-.46-.67-.86-1.41-.86-2.24-.04-5.18,4.33-18.35,6.34-23.65,5.94-15.66,14.46-27.77,29.63-35.63,6.13-3.18,13.89-5.96,20.67-5.58,4.17-2.77,11.11-2.65,16.29-2.52,8.47.21,18.58,1.43,26.65,3.7,10.59,3.78,18.93,11.88,24.94,21.14,1.12-1.23,2.22-1.8,3.32-1.71Z"/><path class="cls-57" d="M300.49,348.55c-8.37,2.16-16.72,5.1-26.29,3.16-12.29-2.5-23.76-7.3-33.93-14.41l-13.87-9.7c.57,1.72-.41,3.35-.5,4.73.1-6.19.13-12.29-.54-19.15,6.16,3.29,11.63,6.61,18.06,8.98,22.15,7.78,35.64.45,55.02-11.4-1.08,12.96-1.29,25.59,2.05,37.79Z"/><path class="cls-53" d="M324.45,106.14c1.83,4.4,4.13,8.56,5.48,13.45l11.13,40.32c3.15,11.4,6.96,22,11.94,32.65.57,1.21.37,3.02.21,4.06l-3.27,20.98c-1.56,10-3.84,19.33-6.62,28.6l-.58.6c-2.17-.61-2.66-2.89-1.48-6.83l-.54-1.47c1.43-7.65,2.79-15.36,4.07-23.12l1.48-2.48c-1.17-1.53-1.51-3.61-1.03-6.26-.92-6.58-2.23-13.07-3.93-19.49l.66-1.61-.9-1.27c-1.92.08-3.06-.58-3.43-2-.16-1.08.44-1.54,1.78-1.39-2.61-7.43-4.63-14.88-6.06-22.36l1.31-.67c.89-.77,2.01-.7,3.35.22-1.92-2.65-4.18-5-6.8-7.05l.18-1.58c.34-2.74-1.12-5.39-1.72-8.36-2.22-11.03-6.03-21.13-10.88-31.28-.28-2.12,3.45-3.26,4.99-3.66.18-.05.45.02.66-.02Z"/><path class="cls-38" d="M359.53,205.97c.23,1.97.71,3.91,1.45,5.81-.26-1.44.22-2.16,1.59-1.41,3.19,5.7,4.97,11.94,6.34,18.31-3.06,4.61-12.85,20.68-20.17,14.44,3.19-13.49,5.83-27.23,7.74-40.75.1-.72.43-1,.66-1.24,1.62,1,1.26,3.82,2.4,4.83Z"/><path class="cls-199" d="M343.31,246.2c-2.38,7.92-3.98,16.07-8.27,23.74-3.5,6.25-7.67,11.71-13.02,16.71-10.59,9.89-22.05,18.97-34.66,25.54,1.7-2.1,3.82-3.92,6.15-5.79,10.32-8.28,19.55-16.98,28.31-26.94,7.95-9.04,13.24-19.35,16.28-30.7-.25-.24-.48-.49-.65-.77-.47-.77,2.02-7.98,3.81-8.02l.29,4.34c.07,1.03,1.25,1.38,1.77,1.89Z"/><path class="cls-123" d="M181.92,191l.59,1.14c-1.4,6.38-3.69,12.56-6.86,18.54-1.05,2.72-1.19,5.56-.83,8.42.97,7.63,2.56,15.33,4.88,22.68l-.42,2.48c.48,1.21.23,2.82.69,3.96-.18,1.94-3.25,1.59-3.83-.15-3.19-10.35-5.46-20.97-7.62-31.89-.37-1.87-.68-3.52-.5-5.15,3.16-7.07,6.28-14.14,8.18-21.94.17-.7.86-1.03,1.25-1.18,1.27-1.46,5.19,1.3,4.48,3.08Z"/><path class="cls-117" d="M179.98,248.22l6.76,16.94c.93,2.32,2.23,4.39,3.65,6.42,8.36,12,18.34,22.1,29.79,31.12,3.35,2.64,6.57,4.97,9.38,7.7-11.08-6.03-21.49-13.65-31-22.42-13.72-12.66-17.18-22.9-22.42-39.91l3.83.15Z"/><path class="cls-79" d="M154.8,236.14c.37-.6-.2-1.72.39-2.58,1.57-2.27,2.68-4.62,4.32-6.66.57.47,5.36,5.58,5.08,3.13s-3.2-3.52-3.12-5.79c.37-1.98,1.71-4.66,2.9-6.23.13-.07.45-.07.51.18l5.63,26.28c-4.94,4.67-12.87-5.76-15.72-8.33Z"/><path class="cls-129" d="M141.59,297.83c-.6-.02-1.26-.09-1.72-.52-1.46-1.36-2.01-7.53-2.09-9.7l-1.79,7.97c-.92,1.52-2.56,2.47-3.17.39-.59-.11-.59-.34-.05-.65l-.65-1.97c-.95.2-1.33.96-1.14,2.26l-1.37.85c-.37,2.65-4.46,5.42-6.73,4.49,5.03-30.85,12.11-35.79,26.11-58.23.38.1.59.65.35,1.17-4.75,10.41-9.06,42.38-7.76,53.94Z"/><path class="cls-59" d="M183.06,319.85c-4.79.27-10.66-.33-14.92,1.8l-2.81,1.41-2.88-5.29c-.05-1.18,1.9-2.16,2.84-2.7.64.28,1.36,1.62,2.13,1.37,3.16-1.91,5.89-5.78,5.44-9.88-.35-3.17-2.91-7.31-6.17-7.8-1.28-.19-3.98-.09-5.18.26-5.76,1.69-7.04,9.56-3.81,13.91,1.29,1.73,3.07,2.55,3.93,4.47-2.16,4.33-18.54-7.44-19.29-10.26-1.97-1.09-2.99-7.68-.69-8.71,3.29.95-.15,2.98,4.92,3.46,1.79.17,2.68,3.1,4.67,3.09,1.3,0,2.71-2.58,3.1-3.78.74-2.3,2.61-2.95,3.92-4.17,2.24-2.09,3.95-.08,5.96-.24,2.57-.21,4.92-2.11,7.18.9,1,1.32,2.93,2.43,3.51,4.39.79,2.64,1.36,5.26,2.3,7.91l4.29,1.29c.76,2.99,1.19,5.81,1.56,8.57Z"/><path class="cls-144" d="M141.59,297.83c.08.13.07.45.05.61-.32,2.93.61,5.78.69,8.71.09,3.56.96,6.97,4.26,8.9,6.78,3.95,11.82,8.19,20.11,9.66,1.75.31,5.04-1.22,6,1.04.4,1.06-2.23,3.07-3.45,2.97-1.88-.15-3.11,1.04-4.64,1.7-7.95,3.45-15.92,7.42-21.15,14.13-2.75.66-2.79-4.19-1.46-6,5.6-3.77,10.93-7.86,15.99-12.26-3.19-1.12-6.56-2.1-10.08-2.94-1.35-2.16-2.95-4.09-4.81-5.81-.72-2.8-2.45-5.26-5.21-7.38-1.06-2.39-2.54-4.34-4.43-5.87-1.75-2.25-2.83-7.42-.63-9.32,1.02.19,2.01-.27,2.26-1.56.92-4.77,1.81-9.45,3.63-14.11.6-1.11,1.29-.58,1.1.56-1.17,5.99-1.2,12,1.78,16.97Z"/><path class="cls-178" d="M143.46,345.55c.04.21-.07.46,0,.67-5.21,4.65-5.94.84-7.52,2.07s.84,3.46-.26,4.7c-.3.34-.98.66-1.54.67-1.9.05-.55,1.36-2.11,5.72-4.59-.11.21-3.96-5.91-7.16-8.67-4.53-5.81-10.73-16.6-11.14-.17-1.12-.84-2.22-.42-3.69h6.12c.1-.31.23-.58.43-.76.79-.72,10.34,5.02,11.51,5.98l1.65.53,2.13,7.22,1.25-1.61c.17-4.92,2.39-8.06,6.67-9.43,2.32-3.6,5.56-6.38,9.73-8.36,2.1-2.83,6.02-4.77,9.39-3.65.44,2.67-1.86,3.22-3.58,4.69-1.45,1.24-2.87,2.12-4.45,3.12-1.76,1.11-2.74,3.01-4.97,3.81-1.34.48-2.82,1.9-2.61,3.05.23,1.28.16,2.8,1.08,3.58Z"/><path class="cls-167" d="M167.28,313.5c-1.15.28-3.73.58-4.8.29-3.16-.83-5.22-5.4-4.52-8.55.9-4.08,3.99-5.81,8.27-5.33,2.73.3,4.58,3.69,4.87,5.87.36,2.79-.42,6.88-3.81,7.71Z"/><path class="cls-170" d="M157.45,341.4c1.51-.73,2.99-.33,3.77,1.15.52.98.2,2.49-.86,3.21-1.17.8-2.8.6-3.73-.44s-.78-3.13.81-3.91Z"/><path class="cls-191" d="M174.52,333.81c.89-.66,1.87-.34,2.54.38.46.49.44,1.65-.25,2.2-.49.39-1.72.52-2.44.04-.64-.42-.87-1.87.15-2.62Z"/><path class="cls-125" d="M194.57,321.24c.72-.52,1.67-.16,2.08.38.44.58.53,1.91-.14,2.4-.73.53-1.86.45-2.47-.37-.42-.58-.36-1.76.53-2.4Z"/><path class="cls-160" d="M123.96,334.82c2.86-.35,4.49,5.54,3.21,7.76-1.16,1.77-9.01-4.62-11.95-5.22-1.18-.8-2.38-1.95-3.79-2.49,4.2.16,11.84,2.55,12.53-.05Z"/><path class="cls-58" d="M458.25,119.47c.86,2.58.7,5.35,1.18,8.03l1.75,3.01c.18,8.76,3.48,14.59,9.88,17.49,2.41.22,4.34,1.09,5.81,2.62,2.05.55,4.05.98,6.5,1.44.66.12.7,1.91.4,2.46-1.56,1.81-4.14,2.5-6.09,1.2.24,1.72-.51,1.76-1.16.14-1.37.3-2.47.9-3.29,1.81-6.98,1.7-9.86,7.05-11.45,13.52l-1.96,13.95c-1.24,2.67-3.37,3.15-4.78.42l-2.06-14.23c-.57-4.57-2.38-8.22-5.45-10.94-2.68-1.14-5.21-2.49-7.59-4.04-1.1,1.06-2.86,1.08-5.28.04-3.06.5-7.2-2.16-4.58-4.98.99-1.07,3.06-1.51,3.65.08,2.04.14,3.92-1.1,5.79-1.38,4.26-.64,9.34-2.02,11.59-6.4,3.6-7,4.52-15.01,4.62-22.55-2.09-2.29.25-2.84,2.49-1.7Z"/><path class="cls-157" d="M483.78,154.51c-.76,1.41-2.57,4.03-3.79,5.32-4.44,4.69-2.62,16.63-7.17,27.49-1.38,3.3-2.32,6.49-3.51,9.78-1.12,3.1-2.5,5.72-2.59,9.24-.04,1.73-2.64,2.19-3.73,3.02-3.49,2.64-5.16,6.63-8.07,9.7-4.21,4.43-8.37,8.73-12.91,12.8-3.84,3.43-7.38,6.73-10.89,10.48-1.45,1.55-3.81,2.27-4.32,4.42-1.07-1.01-.73-2.66-1.25-3.84l-.06-1.55c1.72-1.08,3.54-1.93,5.45-2.56,1-3.24,2.85-6.12,5.54-8.64,6.55-4.58,12.39-9.88,17.52-15.9,1.57-2.98,3.52-5.35,5.85-7.12l4.76.14c-.64-1.07-.13-2.72.6-3.65-2-.72-2.11-1.31-1.6-3.37,1.88-5.32,4.35-10.26,7.42-14.83.33-10,1.89-20.92,6.67-29.72,1.85-1.09,4.09-.58,6.09-1.2Z"/><path class="cls-209" d="M476.88,150.62c-2.93-.78-6.07-.97-9-2.58-6.77-3.72-7.24-13.8-8.45-20.53,7.67,6.15,12.94,14.48,17.45,23.12Z"/><path class="cls-13" d="M451.5,105.46c-.58,2.24-1.41,4.89-.55,7.37,1.21,3.52,4.6,4.82,7.3,6.64-.5.01-1.28-.05-1.78.25-.37.22-.7.95-.71,1.45-2.51,3.36-13.38-8.44-12.59-10.75,1.2-3.4,4.71-4.91,8.33-4.97Z"/><path class="cls-157" d="M481.5,207.92c-4.5,1.74-8.07-.21-10.43-3.44-1.36-1.86-.86-3.86.14-5.92.83-1.71,2.74-2.34,5.09-2.85,3.71-.8,7.69,2.06,8.15,6.02.29,2.53-1.73,4.42-2.95,6.19Z"/><path class="cls-192" d="M483.71,128.72c-2.96.49-5.06-1.11-5.37-3.41s1.9-4.16,4.08-4.05c2.53.12,3.95,2.27,3.35,4.94-.25,1.12-.55,2.28-2.05,2.53Z"/><path class="cls-69" d="M433.75,151.5c-.84-.06-1.92.32-2.82.8-.48.26-.29,1.36-.17,1.76.15.47.98.93,1.78.91,2.81-.04,5.07.98,7.42,1.39,9.26,6.71,11.14,16.36,9.46,27.32-.53,3.45-3.42,16.22-6.51,17.54-.5.21-1.08.03-1.6-.16-.25,2.44-.99,4.77-2.21,6.99l-2.73,2.3c-2.12.54-3.43,1.39-3.94,2.55l1.11,1.43c-.79,5.73-4.59,13.98-8.16,18.51-.77.97-1.69,1.8-3,1.51-.34-1.11-1.42-2.06-1.87-3.1-.82-1.93-.86-4.7-1.87-6.52,0-1.37.86-2.68,2.61-3.95l1.99-3.18c2.25-9.32,6.48-17.97,12.68-25.95,2.49-4.33,7.41-12.87.44-15.29-1.24-1.35-1.59-3.25-.82-4.95,2.62-1.7,3.24-3.35,1.84-4.94-6.02-3.77-9.52-8.64-10.48-14.61,3.21-6.94,1.16-10.65-6.31-12.24-9,.23-15.95-5.49-16.64-14.63-2.01-1.36-4.64-2.06-7.88-2.09-2.32-.84-4.61-1.62-6.85-2.34-.5-2.01-1.82-4.15-2.07-6.34,3.64-1.7,8.2,1.63,14.28,2.82,4.01.79,10.21,1.94,10.37,5.74s-5.29,2.23-5.16,5.69c.06,1.56,1.17,2.07,2.55,3.02,1.76,1.22,3.14,4.07,5.66,4.07,5.48.02,10.13,1.39,14.35,4.67,3.11,2.42,6.48,5.08,7.35,9.31l-2.8,1.96Z"/><path class="cls-48" d="M477.69,155.72c.93.18.73,1.86.18,2.58-2.41,3.14-4.41,12.88-4.74,16.99-1.37,16.85-10.86,24.38-7.93,28.35-.57.58-1.44.99-2.6,1.22l.08,1.07c1.06,0,1.7.45,1.92,1.36-3.12,1.9-4.29-.51-6.43,3.03-5.67,9.4-11.71,13.58-20.14,20.16-1.96,1.53-3.28,3.91-4.92,5.8-.8.92-.44,3.22-1.81,3.76-2.12.82-4.13,1.46-5.77,2.9-1.24-2.78-2.26-5.68-3.16-8.59.03-1.09,1.6-1.42,2.06-2.37,3.41-7.04,7.12-9.37,7.98-19.08l.89-1.22c4.42.8,7.11,4.07,8.08,9.81l1.4-1.92c10.48-7.9,16.91-19.9,22.77-31.34l3.52-2.9-.38-7.96c1.64-6.75,3.08-13.5,4.34-20.25l3.48-1.25c.33-.03.88.02,1.16-.14Z"/><path class="cls-142" d="M416.62,251.93c-.85.62-2.22,1.28-3.07.91-1.32-.58-1.85-1.48-1.89-2.54-.05-1.3.97-1.89,1.47-2.86,1.11,0,2.43.19,3.02,1.02.78,1.08.58,2.36.46,3.46Z"/><path class="cls-184" d="M407.71,45.86c-1.23-4.96-4.32-8.2-9.25-10.22,5.27-1.73,7.79-5.13,9.45-10.12,1.48,5.14,3.94,8.34,9.3,10.12-4.64,2.23-7.47,4.8-9.5,10.22Z"/><path class="cls-86" d="M103.33,314.79c.04-.65-.39-1.74.49-1.94-.03.63.25,1.67-.49,1.94Z"/><path class="cls-160" d="M129.7,311.04c1.49,1.33-.18,5.02-1.08,6.7-2.79,5.16-5.83,6.93-11.21,8.82,3.06.75,4.62,2.08,4.69,3.98.23,1.47-.41,1.84-1.92,1.11-4.72-2-16.01-3.92-16.19-4.21-.23-.38-.31-1.55.2-1.84,1.04-.61,2.16-.42,3.3-.99l-.45-6.13c1,1.12,2.46.47,3.98.13,2.47-.56,5.79.23,7.7-1.56.79-.74-.3-3.33,1.32-3.32.87-.24,1.09.48.66,2.18,1.01.87,1.87,1.03,2.57.49,1.52-2.53,3.24-4.66,5.15-6.38l1.28,1.04Z"/><path class="cls-172" d="M148.61,330.94c-.6,4.57-5.25,2.12-7.93,8.04-.96,2.12-3.87,2.51-5.61,3.79-1.95,1.43.27,8.42-5.19,9.19-.71-3.61-1.29-6.66-2.71-9.38s-.86-5.81-3.21-7.76c-1.28-1.07-2.14-2.48-3.77-3.17.51-.56,1.23-.84,1.92-1.11,2.04-1.13,4.43,1.4,5.53,3.15,1.66,2.64,4.32,7.82,2.87,10.54.37-.06.61.08.74.43.96,2.61-.81,2.26-.02-.01.07-.19.36-.3.72-.39-.37-.04-.68-.11-.79-.29-1.54-2.71,4.61-12.1,7.43-14.15,2.34-1.69,7.1-3.93,9.91-3.68.19-.96.49-1.29,1.37-.95,2.5.96.76,5.05-1.27,5.76Z"/><path class="cls-56" d="M247.68,79.84c-9.6,1.58-19.08,5.33-27.19,11.01-18.1,12.68-24.92,35.83-28.58,56.09-.44,1.48-1.68,2.67-3.73,3.55-1.69,1.91-3.37,2.79-5.04,2.66-.39-.34-.82-.94-.71-1.79,2.46-20.47,5.34-37.59,14.14-56.35,4.89-5.49,11.15-8.53,17.31-11.42,3.58-1.12,7.13-2.07,10.64-2.85.72,2.9,2.95,2.59,1.83-.01,1.33-1.54,3.37-1.91,6.14-1.11,4.57-.57,9.12-1.27,13.66-2.11,1.59.28,2.36.77,1.52,2.34Z"/><path class="cls-21" d="M232.07,161.31l-1.91-.52c-.56-.11-1.37.23-1.87.07l-1.51.81c-9.65-2.36-19.41-4.05-29.28-5.06l-6.32.37-1.25-1c-1.19,2.22-4.46,3.38-6.75,2.3-.22-2.97,2.23-3.15-.02-5.12,2.43-2.34,5.49-4.92,8.77-6.21,8.89-3.48,28.58.34,38.5,3.65,4.45,1.48,6.74,6.03,4.85,10.41-.62.62-2.41.22-3.19.31Z"/><path class="cls-52" d="M319.55,97.32c2.89-.24,4.14.42,3.75,1.98-.66,1.56-2.98,1.67-4.41,1.16-.52.67-1.15,1.27-1.74,2.24-.53.87-2.01,1.08-2.64.12-4.49-6.84-9.89-12.64-16.85-17.1-6.99-3.9-14.45-6.32-22.73-6.82-9.03-.54-18.43-.5-27.25.95-1.63-3.07-7.57,1.09-14.92,1.04-2.05-.01-3.9-.84-5.68-.2.87.48,1.13.87,1.18,1.34.13,1.1-2.82,3-4.2,1.66,1.06-5.92-7.25,2.17-10.19-.08,7.29-3.42,14.79-5.94,23.26-7.06,28.65-3.79,36.09,2.48,41.96,1.85,8.41-.9,15.91-.01,23.38,3.71,7.17,3.56,12.75,8.71,17.06,15.23Z"/><path class="cls-42" d="M229.68,186.63c1.88,2.39,8.08,16.79,4.29,14.97-.56-.11-.52-.29.04-.54-2.93-3.26-5.09-6.79-6.47-10.58l-1.95-.28c-6.14-6.38-15.08-8.77-23.71-7.08l-1.76-.9c-2.47,1.89-5.22,3.49-8.26,4.82-2.05,1.94-4.16,3.29-6.34,4.06-.35,2.03-3.56,2.15-3.6-.1l-4.48-3.08c-1.17-.8-2.01-2.95-2.27-4.3.45-.77,2.09-1.13,2.78-.97.34-.94,1.29-1.47,2.86-1.59,1.79-1.07,3.41-1.34,4.83-.79l1.05-1.93c11.57-5.81,24.92-6.9,36.08.31,2.7,1.75,7.18,4.7,6.91,7.98Z"/><path class="cls-135" d="M225.15,75.3c-8.27,2.11-15.03,6.26-22.67,9.79,5.33-6.88,10.38-15.04,18.08-18.45,9.31-4.12,21.19-.54,29.93,4.63-8.61,1.4-16.97,1.88-25.34,4.02Z"/><path class="cls-135" d="M253.66,71.68c-6.15-7.81-16.43-9.25-25.26-9.37,14.86-7.68,32.49-4.29,43.5,7.8,1.3,1.43,3.19,1.92,3.69,4.24-7.45-1.43-14.16-2.87-21.93-2.66Z"/><path class="cls-176" d="M185.64,180.27c-2.02,1.04-5.54,2.86-7.69,2.38,1.41-6.89,3.05-13.78,3.46-21.1.09-1.56.71-2.56,1.76-3.28,2.24-.86,4.45-1.68,6.75-2.3l1.22.9c-1.19,7.43-2.82,14.77-4.88,22.03-.54.47-.75.92-.62,1.37Z"/><path class="cls-183" d="M120.71,315.9c-.15-.73-.64-1.41-.66-2.18.15-1.33.21-2.69.15-4.02.26.02.69.12.93-.04-.1.07,1.75-8.65,1.76-8.71,3.7-2.87,3.92-1.63,6.73-4.49l1.15.9c.72,6.56-1.71,10.98-6.64,15.05-.88,1.93-2.02,3.09-3.41,3.49Z"/><path class="cls-189" d="M323.86,99.62c-.45.34-.64.23-.57-.32-1.81-1.76-2.23.31-3.75-1.98,1.05-.64,2.67-.55,3.01-1.9,1.04,1.26,2.92,3.07,1.3,4.2Z"/><path class="cls-70" d="M173.1,144.52c.19-1.28-.67-2.83.54-3.82-.08,1.28.4,2.83-.54,3.82Z"/><path class="cls-113" d="M361.64,123.68c-.11-.38.07-.85-.02-1.25,2.26-3.16,5.52,14.59,5.99,16.53l3.28,13.7c2.18,9.12,4.49,17.77,8.1,26.37,3.91,9.32,7.82,18.1,12.97,26.83,1.34,2.28,2.92,4.45,3.08,7.38-18.37-19.15-27.03-47.11-29.78-73.18-.62-5.83-2.1-11.1-3.62-16.38Z"/><path class="cls-100" d="M336.44,92.44c.08-.97.49-1.72.78-2.61.78.08,2.26-.36,2.75.41.54.86.34,2.69-.74,3.25-.76.4-2.04-.4-2.78-1.05Z"/><path class="cls-35" d="M334.58,109.6c.71-.66,1.5.26,1.67.66.23.56.02,1.19-.52,1.68s-1.09.32-1.34-.25-.54-1.42.19-2.1Z"/><path class="cls-22" d="M323.29,99.3c.2,0,.38.26.57.32-.14,1.05.29,2.67-.72,3.49-.91.57-2.1.73-3.1.18s-1.07-1.79-1.15-2.84c1.05-1.36,2.77-1.22,4.41-1.16Z"/><path class="cls-6" d="M382.41,158.97c-.69,1.24-1-.3-1.18-.73-.31-.73-.47-1.77.37-1.84.29.84.4,1.76.81,2.56Z"/><path class="cls-33" d="M418.65,224.72c-3.03-5.47-5.43-11.28-8.26-17.2-2.66-5.57-5.96-10.67-7.94-16.57-4.04-12.03-5.95-24.24-7.94-36.81l-5.29-33.58c1.84-1.27,3.58-.3,5.56.59,2.53,1.14,5.72.83,8.34,1.62,4.8,1.46-1.24,6.84,9.71,14.23,2.6,1.76,9.73.03,14.25,4.02,2.55,2.25,3.5,5.66,1.79,8.66-3.3,5.8,5.06,12.42,9.1,15.63,1.35,1.08,2.11,3.68.78,4.77-1.27,1.03-2.42,1.53-2.37,3.02.04,1.36.51,2.55,2.13,3.15,6.88,2.55-1.01,15.38-3.39,19.13-3.44,5.42-9.14,12.83-9.68,18.82-.39,4.29-3.4,8.43-6.79,10.51Z"/><path class="cls-159" d="M367.44,102.49c-6.04,2.37-9.22,5.83-10.08,12.43-3.89-9.04-1.7-7.83-11.11-12.29,6.44-1.56,9.59-5.88,10.88-12.71,1.47,6.25,3.63,10.29,10.3,12.58Z"/><path class="cls-66" d="M56.68,243.31c-1.76,3.29-1.97,7.23-3.39,11.3-1.72-3.87-2-8.04-4.07-11.53.88.38,1.84.78,3.05.6,1.56-.62,3.02-.6,4.4-.37Z"/><path class="cls-66" d="M62.47,237.4c-.43-1.93.77-3.68.6-5.6,2.33.82,4.84,1.52,7.16,2.62-2.71,1.8-5.83,1.4-7.76,2.98Z"/><path class="cls-140" d="M362.57,210.37c-.64-.22-.42.69-.33,1.17,1.61,8.4,1.02,12.37-6.82,17.13.13-3.61,5.41-6.35,5.24-11.93-.15-4.92-3.94-10.46-1.13-10.77,1.53,1.36,2.06,2.65,3.03,4.4Z"/><path class="cls-128" d="M361.45,289.37c2.43-1.01,4.66.28,5.35,2.06.87,2.24-.17,4.55-2.13,5.38-2.1.89-4.25.3-5.28-1.63s-.49-4.75,2.06-5.81Z"/><path class="cls-169" d="M346.27,212.9c-.65,9.19-3.08,18.07-5.01,27.07-.64,2.99-2.37,5.87-3.15,8.79-2.43-1.06-4.36,1.81-6.71,2.63-6.55,2.28-15.66,1.02-16.36,1.16-4.82.97-8.84-.93-13.06-2.57-3.27-1.28-5.45-3.2-8.05-5.21-2.59-2.01-4.19-3.53-5.24-6.91-.77-2.48-3.54-4.84-3.4-7.79.29-6.22.98-6.23,5.36-10.13,2.13-1.9,4.75-3.78,5.17-6.9.1-.77-1.88-1.7-1.51-2.65l1.03-.61c9.43,1.87,19.65,1.91,28.34-2.67l2.11.26c1.09.19,2.22.64,3.41,1.34,5.98.64,11.68,2.04,17.09,4.21Z"/><path class="cls-169" d="M185.52,191.1c1.45.21,1.24.92.11,1.67,1.81-.51,2.22,2.58.53,3.21,2.6,12.87,17,15.97,28.39,15.27l1.21,1.1c.08,1.07.93,2.27,1.96,2.92,2.12,1.34,2.39,3.61,3.7,5.25,2.86,3.56,5.77,8.39,4.47,13.33-.22.82-1.27,8.81-2.02,9.58,1.12-1.13-9.34,5.17-9.51,5.27-1.57.88-2.88,2.58-5.08,2.4-3.72-.3-8.42,6.36-24.23-4.29-1.92-1.29-3.49-2.85-5.76-2.53-2.97-7.51-4.14-15.57-5.53-23.79-.69-4.07-.51-7.58,1.18-11.35,2.71-6.01,5.6-11.9,6.98-18.12.75.55,2.77.16,3.6.1Z"/><path class="cls-73" d="M334.66,157.86c-.31,2.13.64,4.21,1.24,6.47,1.6,5.97,3.01,11.66,5.17,17.58-1.58.52-2.5.16-3.45.37-1.2,1.14-2.87,1.04-5.03-.28-14.1-8.88-32.41-8.77-43.3,4.91l-1.82.33c-2.06-.96-5.19-2.19-5.9-4.84-1.54-5.77.07-12.21,3.39-17.03,2.03-2.94,9.95-4.66,6.79-5.9.36-.42.74-.83,1.17-1.16s.82-.61,1.27-.76c8.09-2.54,21.84-5.65,30.1-4.52,3.4.47,9.16,1.54,10.36,4.84Z"/><path class="cls-44" d="M228.28,160.86c-.19,1.11,1.68,2.86,2.71,3.22,2.69.94,2.08,3.05,3.23,4.66,3.59,5.04,4.61,11.77-.57,16.37-.96.85-3.35.17-3.97,1.51-7.05-8.95-18.09-13.23-29.6-11.37-5.31.86-9.94,2.69-14.44,5.01-.35.02-.92.1-.86-.27.72-4.75,5.01-17.79,5.14-24.03,6.93-1.85,19.83.65,27.42,2.53,3.81.94,7.55,1.06,10.94,2.36Z"/><path class="cls-20" d="M274.17,238.57c-.08.29-.17.56-.34.78-.66.9-17.46,5.65-19.65,3.27-4.29-2.14-8.43-2.74-12.42-1.82l-1.34-.76-1.33-.51c.6-3.33,1.22-6.15,1.87-8.46.53-.94.13-2.39,1.56-3.38,1.88-1.29,3.09-3.39,3.8-5.56.58-1.78,2.52-2.07,3.63-3.16,4.63-4.52,10.09-2.41,15.89-.91.02,1.38,6.27,7.65,8.35,8.01-2.73,2.69-2.56,4.67-1.94,7.61.18.87-.95,2.55-.07,3.47.46.48,1.25.93,2,1.41Z"/><path class="cls-158" d="M331.39,149.45c3.39,3.42,7.44,5.74,8.85,10.69-2.18-.5-3.97-1.39-5.57-2.28-5.58-3.08-11.49-4.38-17.65-3.66-8.76,1.02-17.02,3.16-25.25,5.26-3.6.92-7.08.82-10.57,1.33-2.67-4.79.17-9.57,4.97-11.24,8.08-2.81,16.23-3.87,24.69-4.88,7.6-.91,14.3.78,20.54,4.77Z"/><path class="cls-80" d="M291.76,269.43c-1.82,3.29-4.67,5.7-7.65,8.18-8.15,6.78-17.99,9.31-28.57,8.59-7.92-.54-15.1-2.97-21.14-8.37-1.68-1.5-4-2.51-4.69-4.61,1.19-.53,2.43-.76,3.73-.7,19.24.99,37.45.73,56.05-3.75l2.28.65Z"/><path class="cls-166" d="M337.62,182.29c1.51.32,2.94.94,4.91.72.09,1.06-.35,1.75-.58,2.55.65,2.18-2.07,4.12-3.87,5.13-1.66.93-4.62,2.54-5.52.31h-1.16c-3.46-3.07-7.28-5.45-11.45-7.16l-1.12-1.66-1.96.8c-9.16-2.28-18.27.51-24.92,7.13l-2.08.31.2.91c-1.8,3.05-3.74,6.03-5.82,8.97.81,1.38.51,2.02-1.13,1.99-.83-4.74,1.32-10.77,4.36-15.03,3.88-5.43,9.97-9.78,16.54-11.57,9.37-2.55,18.88-.48,27.01,4.13,2.31,1.31,4.36,2.01,6.59,2.48Z"/><path class="cls-156" d="M293.7,265.8l-1.36,1.87c-18.87,5.58-38.53,6.13-58.21,4.94-1.73-.1-5.2-.33-4.5-2.57,4.78-1.96,9.95-3.2,15.01-4.98,5.4-1.89,10.24-1.2,15.66-.05,2.98-.29,6.16-2.77,9.47-2.42,9.35.99,16.11,3.17,23.93,3.21Z"/><path class="cls-26" d="M196.98,187.87l.76,1.31c-4.27,17.57,21.21,25.9,27.82,8.74l1.47-.62c1.9-4.39,5.44,1.22,6.98,3.76.05.16-.06.37-.04.54,3.35,2.71-9.73,7.28-8.23,6.9-8.66,4.03-23.03,4.01-31.37-1.13-3.9-2.4-7.77-6.75-8.2-11.39l-.53-3.21c1.22-2.5,6.28-5.81,8.98-6.65,2.02-.62,3.38-.62,2.37,1.75Z"/><path class="cls-43" d="M274.17,238.57l3.83.82,1.09.92c-.63,1.89-1.68,3.66-3.13,5.31-4.56,3.05-14.17,10.03-19.76,7.26l-12.61-6.24c-1.11-.55-1.92-.57-2.74-1.13l.43-.82c-1.26-1.37-2.64-3.2-.87-4.66,3.01-1.57,6.48-1.4,9.81-.02,13.15,5.45,18.64-2.59,23.95-1.45Z"/><path class="cls-208" d="M331.91,192.7c1.54,1.23,1.33,2.16-.51,2.76-2.21,12.26-14.28,15.59-25.52,15.49-4.09-.03-9.58-.28-12.81-2.43-1.83.03-3.54-.6-5.15-1.89-1.37-1.81-4.36-1.86-4.8-4.36.18-.72.47-1.56,1.13-1.99,1.17-2.55,2.85-4.49,5.04-5.81l1.17.89,1.45.75c5.55,17.97,30.58,12.44,28.19-6.35l1.07-1.27c-.48-2.17-.36-3.08,1.98-2.27,1.19.16,9.07,4.75,8.77,6.47Z"/><path class="cls-149" d="M291.76,269.43c-6.86,2.11-13.48,2.54-20.38,3.57-14.03,2.1-27.9,2.13-41.68.22-1.14-.16-8.93-1.91-7.25-4.35,1.56-2.26,3.77,1.59,7.19,1.16,1.56,1.06,3.19,1.27,4.98,1.46,12.91,1.34,25.52.59,38.35-1.17,7.3-1.01,14.23-1.84,20.73-4.52,4.18-1.73,4.45-3.58,5.55-2.04,1.79,2.48-6.09,5.24-7.49,5.67Z"/><path class="cls-171" d="M325.77,207.35c-9.55,5.71-20.82,5.64-31.47,3.03-.83-.2-1.48-1.01-2.4-1.15-.6-.91-.21-1.15,1.17-.71,8.47,1.65,17.12,2.07,25.66-.6,6.3-1.97,10.04-6.84,12.67-12.47,3.94.28.26,6.33-1.26,8.56-1.32,2.68-2.78,3.79-4.38,3.34Z"/><path class="cls-4" d="M225.73,208.5c.31.11.75-.21,1.34.36l-2.45,1.14c-.83,1.59-2.86,1.78-4.49,1.73l-.58.02-2.57.43c-.4,0-.83.14-1.24.16-11.29.7-25.3-.98-29.76-13.67-.39-1.12-.38-1.92.16-2.69,2.98,6.87,8.69,11.84,16.42,13.24,7.83,1.42,15.67,1.16,23.15-.72Z"/><path class="cls-27" d="M248.06,197.27l-5.97-23.47c4.6,6.91,6.57,15.23,5.97,23.47Z"/><path class="cls-16" d="M240.41,240.04c.34,1.72.85,3.25,2.51,5.14-.63.76-1.43.3-2.07.33-5.45-3.73-2.3-10.24.1-14.44,2.37-.64-1.52,4.05-.54,8.97Z"/><path class="cls-93" d="M275.96,245.63c-.92-1.95,1.4-.87,2.04-6.23.29-2.4-.39-4.58-1.15-6.89-.23-.58-.05-.77.54-.57,1.56,1.83,2.7,4.25,2.94,6.7.38,3.9-2,5.41-4.37,6.99Z"/><path class="cls-67" d="M290.63,114.06c.96-.92,2.21-.45,2.74.22s.46,2.08-.3,2.79c-.47.44-1.79.51-2.42-.03-.58-.5-.92-2.12-.02-2.98Z"/><path class="cls-117" d="M220.13,211.74c1.23-1.1,2.97-1.2,4.49-1.73-.05,1.18-.63,2.18-1.75,2.29-1.03.11-2,.09-2.74-.56Z"/><path class="cls-20" d="M293.07,208.52c-.41.2-.81.44-1.17.71-1.89-.29-3.11-1.46-3.98-2.6,1.77.44,3.62.88,5.15,1.89Z"/><path class="cls-117" d="M219.56,211.75c-.29,1.02-1.76.43-2.57.43.5-.85,1.73-.41,2.57-.43Z"/><path class="cls-44" d="M232.07,161.31c-.57.07-1.78.29-1.91-.52.65.13,1.57-.25,1.91.52Z"/><path class="cls-20" d="M277.39,231.94c-.17.2-.4.34-.54.57-.58.17-1-.43-.8-1.01.11-.31.53-.45.92-.33.25.08.46.42.42.77Z"/><path class="cls-77" d="M346.27,212.9c-2.72,1.46-4.95-.92-7.73-1.37l-8.59-1.41c-1.96-.32-3.51-.82-4.18-2.77.83-.5,8.09-9.23,5.64-11.9.13-.9.48-1.82.51-2.76-1.67-.97-1.15-1.93.65-1.71,3.93.04,6.91-2.54,9.4-5.44,1.57,2.91,1.17,6.67,2.44,9.88,2.36,5.95,2.28,11.6,1.87,17.47Z"/><path class="cls-34" d="M132.12,293.35l.65,1.97c-.02.2.02.45.05.65.4,2.53-.39,5.78,1.27,8.12.9,1.28,2.67,1.87,3.27,3.56,1.04,2.94,3.4,4.87,5.71,6.87.94.81.22,3.07,1.18,3.81,5.98,4.61-1.07,4.41,11.97,6.77,1.69.31,1.6,1.15,1.77,2.19-1.39,1.25-3.44.96-5.25,1.71-1.51.63-2.57,2.11-4.14,1.94.15-1.13,2.15-4.07.8-4.63-.26-.11-.61-.08-.9-.18-1.2.42-1.78.46-1.46-.85-4.37-3.66-8.19-7.96-11.47-12.9-1.42.92-2.08.71-2.76-.93-1.77.47-2.21-1.53-.61-2.35-.61-.72-1.33-.82-1.89.03,1.7.62,1.13,2.01-.62,1.91-4.28.19-1.93,6.48-8.5,7.3-.6-.6-.31-1.61-.48-2.44,2.27-5.87,6.22-7.2,7.45-9.54,1.56-2.95.98-6.86,1.45-9.9.32-2.08,0-3.54,1.6-3.86.55-.11.57.54.91.74Z"/><path class="cls-144" d="M132.78,295.32c-.8-.19-.52-1.34-.65-1.97.72.43.75,1.16.65,1.97Z"/><path class="cls-18" d="M162.31,303.25c2.32-1.18,4.61-.4,5.64,1.7.84,1.72.48,4.12-1.68,5.22-1.64.84-4.01.55-5.11-.98-1.26-1.76-1.13-4.78,1.15-5.94Z"/><path class="cls-180" d="M476.54,155.86l-2.63,1.71-1.24,9.43c.03-.22-5.53,14.72-1.4,18.82-3.31,1.02-4.85,2.72-5.78,5.33-.79,2.23-2.43,4-3.35,6.08-2.88,6.54-14.98,23.01-20.74,24.24-1.49-.47-.57-3.69.02-4.82,1.62-3.06,3.25-4.52,6.69-5.27-4.62-.57-9.02-6.01-6.81-10.33,5.66-5.2,7.82-19.62,7.41-27.37-.21-3.86-1.53-6.83-3.57-9.79l-5.19-7.55c4.53.8,9.61,2.41,11.83,7.11,4.24,8.99,3.5,21.83,4.89,22.48,5.97,2.77-3.13-28.2,19.86-30.09Z"/><path class="cls-83" d="M474.7,153.15c-12.87,4.57-12.83,6.69-17.23,18.48-4.25-11.96-4.84-13.83-17.09-18.46,12.24-3.97,12.65-6.58,17.08-18.2,5.18,12.2,3.95,14.03,17.25,18.17Z"/><path class="cls-180" d="M465.21,203.63c.91,1.23.68,2.88-.6,3.65-.85-.12-2.22.32-2.85-.58-.52-.76-.75-2.45.35-3.25.73-.53,2.11-.16,3.1.18Z"/><path class="cls-197" d="M479.18,206.49c-1.98.33-4.26-.93-5.34-2.18-1.47-1.7-.21-3.57,1.24-4.6,2.12-1.51,4.99-1.66,6.33.38s1.07,5.84-2.23,6.39Z"/><path class="cls-215" d="M441.31,201.06c1.69,11.54,8.72,7.72,8.81,10.22.08,2.19-6.18.33-7.87,6.91l-.85,3.29c-3.54.75-.56-8.56-8.97-8.59-4.65-3.67,6.65-.58,7.31-10.29.08-1.26,1.1-1.12,1.57-1.55Z"/><path class="cls-134" d="M132.21,309.11l.61,2.35,1.52.74c1.64,5.32,5.29,9.92,10.77,11.48l1.94,1.61c.44.34.92.66,1.46.85-6.04,3.94-11.94,3.26-15.03,13.19l-1.53,4.93c-.21,1.75-.98,1.66-1.44-.02-1.03-3.36-2.08-6.8-3.94-9.88-1.32-2.18-3-2.61-4.46-3.8-2.27-1.86-4.89-2.7-8.37-4.03,12.05-4.19,12.67-5.33,15.96-15.46l.62-1.91c.77-2.13.99-2.07,1.89-.03Z"/><path class="cls-160" d="M131.95,344.25c-.27.85.18,1.89-.69,3.16-.89-.85-.43-2.13-.75-3.18l1.44.02Z"/><path class="cls-131" d="M227.54,190.49c1.12,2.41,2.18,5.59-.52,6.81-1.39,5.89-6.27,10.23-12.59,11.13-5.61.8-10.92-1.16-14.43-5.2-3.64-4.18-5.61-10.71-3.03-15.35-1.41-2.18.98-4.38,3.14-5.64,10.13-2.5,20.61.32,27.43,8.26Z"/><path class="cls-39" d="M200.12,182.23l-3.14,5.64c.71-3.7-10.33,4.95-11.35,4.9-.08-.45-.39-1.24-.11-1.67,3.61-4.64,8.97-7.49,14.6-8.88Z"/><path class="cls-214" d="M234.01,201.06c-1.79-1.62-3.51-3.34-5.77-4.53-.48.23-.85.53-1.21.76.53-2.25.33-4.48.52-6.81,2.71,3.16,5.29,6.45,6.47,10.58Z"/><path class="cls-97" d="M313.23,171.08c-10.19-1.05-19.3,3.46-26.27,10.24,7.32-14.94,30.34-16.65,41.74-5.13-5.19-1.64-9.66-4.51-15.48-5.11Z"/><path class="cls-36" d="M229.86,181.35c-12.93-11.46-23.07-12.78-39.96-5.63,10.51-10.36,28.72-8.56,38.42,2.46.9,1.03,1.52,1.89,1.54,3.17Z"/><path class="cls-203" d="M264.71,230.47c4.56,2.99-11.41,5.65-12.07,2.23-.55-2.85,6.86-5.64,12.07-2.23Z"/><path class="cls-165" d="M318.84,182.16c-.24.48.15.98,1.18,1.48,1.52,1.63,1.91,3.25,1.15,4.85,1.7,8.79-2.89,17.58-11.93,19.51s-17.14-3.7-18.78-12.65c-.53,0-1.29-.18-1.3-.56-.03-1.41.26-3.22.71-4.41,8.02-8.39,17.66-11.4,28.97-8.23Z"/><path class="cls-196" d="M318.84,182.16c5.44,1.52,9.86,4.58,13.72,8.83-.13.57-.63,1.11-.65,1.71l-8.96-5.16c-.59-.34-1.39-.72-1.65-.05-.12.29-.05.71-.14,1-.37-1.91-2.2-3.73-3.04-5.77-.44-.61.25-.63.72-.57Z"/><path class="cls-106" d="M290.46,195.36c-2.58.8-3.96,3.44-6.21,4.92.67-3.76,3-7.14,5.62-9.88,1.55,1.09.29,3.31.59,4.96Z"/><path class="cls-84" d="M254.21,248.02c-2.9-1.07-5.23-2.96-8.4-2.45-.69-.06-.47-2.55.3-2.67,3.36-.52,7.37,1.12,8.1,5.13Z"/><path class="cls-105" d="M272.67,242.43c2.96,1.98-5.68,3.45-7.65,4.68-.02-3.27,5.56-6.08,7.65-4.68Z"/><path class="cls-172" d="M147.05,325.29c-7.4-.82-12.39-6.7-14.23-13.83.73,1.1,2.35-.71,3.23-.17,2.8,1.74,3.76,5.31,5.93,7.53,2.01,2.07,4.15,3.9,5.07,6.46Z"/><path class="cls-160" d="M132.21,309.11c-.57-.5-1.35-.52-1.89.03l.85-3.89c.73,1.25.72,2.6,1.05,3.86Z"/><path class="cls-210" d="M220.75,194.18c1.97,1.34-.34,4.15-1.68,5.46-3.78,3.7-9.97,3.57-13.76-.08-1.35-1.3-3.67-4.23-1.69-5.54-.15-.64.14-1.01.04-1.24.56-.89,1.34-1.72,2.33-2.49-.22-1.23-.15-2.31.2-3.26,2.48-2.93,7.03-3.34,10.35-1.58,2.34,1.24,4.99,5.38,4.21,8.72Z"/><path class="cls-103" d="M203.62,194.02c.91,3.98,4,6.74,8.1,7.06s7.95-2.31,9.03-6.91c1.04.38,2.33.72,2.89,1.41.84,1.04.43,2.69-.19,3.87-2.7,5.12-8.22,7.72-14.18,6.53-4.34-.87-9.48-5.09-9.67-10.39.04-1.43,3.21-1.55,4.03-1.58Z"/><path class="cls-72" d="M206.19,187.03c.9,1.09,1.48,2.49.94,3.77-.62,1.46-2.04,1.91-3.47,1.98-1.67-1.28-2.65-2.89-1.6-4.6.85-1.38,2.57-1.63,4.13-1.15Z"/><path class="cls-118" d="M314.06,193.3c.85.37,1,.72,1,1.45,0,6.63-11.22,9.59-16.36,4.34-1.31-1.34-3.61-4.49-1.48-5.65-.04-.22.12-.47.1-.7.92-.76,1.88-1.53,2.87-2.33-.52-1.27-.64-2.38-.35-3.33,1.87-3.01,6.29-3.53,9.56-2.05,3.01,1.37,5.07,4.84,4.65,8.26Z"/><path class="cls-92" d="M297.23,193.44c.67,4.2,4.02,7.12,8.15,7.29,4.45.19,8.15-3,8.69-7.43.87-.42,4.43-.68,4.58.78.07,6.8-6.38,11.76-12.65,11.86s-11.81-4.4-12.89-10.78c1.48-1.11,2.82-1.39,4.12-1.72Z"/><path class="cls-120" d="M299.85,187.08c1.04,1.13,2.04,2.55,1.5,3.8-.72,1.65-2.53,2.4-4.02,1.86s-1.92-2.62-1.47-3.85c.51-1.4,2.57-1.77,3.99-1.81Z"/></svg>