<?xml version="1.0" encoding="UTF-8"?><svg id="Layer_1" xmlns="http://www.w3.org/2000/svg" width="39mm" height="39mm" viewBox="0 0 110.55 110.55"><defs><style>.cls-1{fill:#5f3a59;}.cls-2{fill:#d27ea0;}</style></defs><path class="cls-1" d="M109.04,56.34c-3.51,28.03-29.09,51.98-57.12,53.48C23.88,111.33,1.16,88.6,1.16,59.06S26.73,5.58,58.28,5.58s54.27,22.73,50.76,50.76Z"/><path class="cls-2" d="M63.94,52.36c.25,3.23,1.27,6.32,3.47,8.61.93.97,2.11,1.58,3.35,1.49,1.06-.08,2.15-.71,2.97-1.61l6.56-7.23c2.86-3.15,11.08-8.26,6.7-12.88-2.26-2.38-4.66-4.79-7.36-6.74-1.95-1.4-3.79-2.56-5.4-4.37-1.11-1.24-4.56-4.66-6.39-4.04-1.96.66-3.72,1.46-5.57,2.55,5.26,10.4,1.03,16.12,1.66,24.21Z"/><path class="cls-2" d="M80.93,56.95l-5.3,6.11c-1.4,1.61-3.31,2.77-5.56,2.53-2.33-.24-4.32-1.63-5.76-3.52-2.52-3.32-3.4-7.49-3.28-11.71.26-8.89,3.28-12.69-1.66-22.82l3.08-2.32c-10.01-.97-18.11-1.15-26.5,4.66-1.21.84-1.93,1.97-2.1,3.43-.51,4.26-4.72,5.18-8.36,6.11-4.22,1.08-8.32,1.99-12.54,3.64,1.4.21,2.79.06,4.12.7,1.75.85,2.5,2.74,1.46,4.52-1.12,1.93-3.12,4.15-5.49,4.3-1.59.1-2.17-1.88-3.58-2.54.8,3.28,2.13,6.46,4.47,9.11.64-1.39-.4-2.35.02-3.83,2.76,2.31,5.77,4.18,9.2,5.43,6.28,2.28,11.3.63,17.29-1.4,1.56-.53,4.66-1.08,5.14.7.49,1.82-3.39,3.43-5.75,3.67-3.71.37-7.36.45-11.13.25-4.14-.22-7.85-1.59-11.72-3.45,2.44,6.52,12.31,5.12,18.59,5.75,5.43.55,9.34,4.52,10.12,9.9.55,3.77-.06,7.44-1.22,11.03-.04-5.6-.63-11.74-4.7-16.13.72,4.66.35,8.93-1.18,13.17l-2.53,7,3.01-2.62c-.98,4.78-.2,9.23,1.89,13.63,3.35.7,6.82,1.06,10.38,1.06,18.22,0,34.19-9.59,43.17-23.99-7.57-6.95-10.09-12.41-13.59-22.38ZM45.46,38.79c-1.77.66-3.73.03-5.52.1.73-1.44,1.45-2.54,2.37-3.73,2.3-3,6.29,1.82,7.12,3.92-1.59-.98-2.58-.8-3.96-.29ZM64.15,85.52c-6.03,4.56-10.57,10.48-12.95,17.76-.24-5.64,1.88-10.93,5.51-15.21,1.84-2.17,3.86-3.84,6.07-5.62,4.81-3.87,8.57-8.61,11.14-14.22-.87,7.41-3.94,12.88-9.77,17.29Z"/><path class="cls-2" d="M88.16.66c.01.18.03.36.04.53.71,7.28,1.57,8.5,3.24,10.3,1.8,1.67,3.02,2.53,10.3,3.24.17.01.35.03.53.04-.18.01-.36.03-.53.04-7.28.71-8.5,1.57-10.3,3.24-1.67,1.8-2.53,3.02-3.24,10.3-.01.17-.03.35-.04.53-.01-.18-.03-.36-.04-.53-.71-7.28-1.57-8.5-3.24-10.3-1.8-1.67-3.02-2.53-10.3-3.24-.17-.01-.35-.03-.53-.04.18-.01.36-.03.53-.04,7.28-.71,8.5-1.57,10.3-3.24,1.67-1.8,2.53-3.02,3.24-10.3.01-.17.03-.35.04-.53Z"/></svg>