<?xml version="1.0" encoding="UTF-8"?>
<svg id="Layer_1" xmlns="http://www.w3.org/2000/svg" version="1.1" viewBox="0 0 283.46 104.7">
  <!-- Generator: Adobe Illustrator 30.1.0, SVG Export Plug-In . SVG Version: 2.1.1 Build 136)  -->
  <defs>
    <style>
      .st0 {
        fill: #5f3a59;
      }

      .st1 {
        fill: #fff;
      }

      .st2 {
        fill: #d27ea0;
      }
    </style>
  </defs>
  <g>
    <path class="st2" d="M116.61,47.82v-.51c1.21-.4,1.46-1.5,1.46-4.14v-16.32c0-2.63-.26-3.73-1.46-4.13v-.51h6.81v.51c-1.21.4-1.46,1.5-1.46,4.13v18.48c0,1.17.66,1.83,1.83,1.83h3c3.7,0,5.6-.88,7.06-4.03l.48.07-.29,4.61h-17.43Z"/>
    <path class="st2" d="M136.32,39.36c0-6.22,4.87-10.1,9.62-10.1s7.57,3.4,7.57,6.59h-13.87l-.07,1.17c0,4.79,2.93,8.2,7.58,8.2,2.71,0,4.79-1.17,6.33-2.89l.33.37c-1.68,2.56-4.57,5.49-8.82,5.49s-8.67-2.89-8.67-8.82h0ZM149.83,35.34c-.48-3-2.49-5.38-5.01-5.42-3.11-.04-4.68,2.56-5.12,5.42h10.14-.01Z"/>
    <path class="st2" d="M155.63,47.31c1.21-.4,1.46-1.5,1.46-4.14v-8.42c0-2.16-.55-2.52-1.46-2.93v-.51l4.83-2.12.37.29v3.07c2.01-1.65,4.65-3.29,7.5-3.29,2.56,0,4.25.99,4.94,3.33,2.01-1.65,4.68-3.33,7.58-3.33,3.37,0,5.27,1.76,5.27,6.04v7.87c0,2.64.26,3.73,1.46,4.14v.51h-6.66v-.51c1.21-.4,1.46-1.5,1.46-4.14v-7.21c0-3.29-1.06-5.23-3.77-5.23-1.72,0-3.29.84-5.23,2.38.15.66.22,1.39.22,2.2v7.87c0,2.64.26,3.73,1.46,4.14v.51h-6.66v-.51c1.21-.4,1.46-1.5,1.46-4.14v-7.21c0-3.29-1.06-5.23-3.77-5.23-1.72,0-3.29.84-5.27,2.45v9.99c0,2.64.26,3.73,1.46,4.14v.51h-6.66v-.51h0Z"/>
    <path class="st2" d="M189.55,47.31c1.21-.4,1.46-1.5,1.46-4.14v-8.42c0-2.16-.55-2.52-1.46-2.93v-.51l4.83-2.12.37.29v3.07c2.01-1.65,4.65-3.29,7.5-3.29,2.56,0,4.24.99,4.94,3.33,2.01-1.65,4.68-3.33,7.58-3.33,3.37,0,5.27,1.76,5.27,6.04v7.87c0,2.64.26,3.73,1.46,4.14v.51h-6.66v-.51c1.21-.4,1.46-1.5,1.46-4.14v-7.21c0-3.29-1.06-5.23-3.77-5.23-1.72,0-3.29.84-5.23,2.38.15.66.22,1.39.22,2.2v7.87c0,2.64.26,3.73,1.46,4.14v.51h-6.66v-.51c1.21-.4,1.46-1.5,1.46-4.14v-7.21c0-3.29-1.06-5.23-3.77-5.23-1.72,0-3.29.84-5.27,2.45v9.99c0,2.64.26,3.73,1.46,4.14v.51h-6.66v-.51h0Z"/>
    <path class="st2" d="M223.47,47.31c1.21-.4,1.46-1.5,1.46-4.14v-8.42c0-2.16-.55-2.52-1.46-2.93v-.51l4.83-2.12.37.29v13.69c0,2.64.26,3.73,1.46,4.14v.51h-6.66s0-.51,0-.51ZM224.09,25.46c0-1.43,1.1-2.53,2.49-2.53,1.46,0,2.49,1.1,2.49,2.53s-1.1,2.49-2.49,2.49-2.49-1.1-2.49-2.49Z"/>
    <path class="st2" d="M232.32,47.31c1.21-.4,1.46-1.5,1.46-4.14v-19.39c0-2.16-.55-2.53-1.46-2.93v-.51l4.83-2.12.37.29v21.04l5.75-5.71c2.34-2.34,2.31-3.73,1.57-3.99v-.33h4.65v.51c-1.17.37-2.6.91-4.46,2.78l-2.34,2.34,4.36,7.87c1.43,2.56,2.56,4.28,4.32,4.28v.51h-2.93c-1.79,0-3.48-1.1-5.23-4.39l-3.04-5.78-2.64,2.64v2.89c0,2.64.26,3.73,1.46,4.14v.51h-6.66v-.51h-.01Z"/>
    <path class="st2" d="M252.86,47.31c1.21-.4,1.46-1.5,1.46-4.14v-19.39c0-2.16-.55-2.53-1.46-2.93v-.51l4.83-2.12.37.29v21.04l5.75-5.71c2.34-2.34,2.31-3.73,1.57-3.99v-.33h4.65v.51c-1.17.37-2.6.91-4.46,2.78l-2.34,2.34,4.36,7.87c1.43,2.56,2.56,4.28,4.32,4.28v.51h-2.93c-1.79,0-3.48-1.1-5.23-4.39l-3.04-5.78-2.64,2.64v2.89c0,2.64.26,3.73,1.46,4.14v.51h-6.66v-.51h0Z"/>
    <path class="st2" d="M273.37,47.31c1.21-.4,1.46-1.5,1.46-4.14v-8.42c0-2.16-.55-2.52-1.46-2.93v-.51l4.83-2.12.37.29v13.69c0,2.64.26,3.73,1.46,4.14v.51h-6.66v-.51h0ZM273.99,25.46c0-1.43,1.1-2.53,2.49-2.53,1.46,0,2.49,1.1,2.49,2.53s-1.1,2.49-2.49,2.49-2.49-1.1-2.49-2.49Z"/>
    <path class="st1" d="M116.6,89.78l-.18-6.59.57-.09c1.84,5.01,5.75,8.87,11.59,8.87,3.03,0,5.84-1.93,5.84-5.53,0-4.3-5.66-6.32-9.18-7.73-4.52-1.89-8.3-3.38-8.3-8.47,0-5.44,4.39-8.83,11.28-8.83,3.25,0,6.15.7,8.43,1.84l.18,5.71-.48.18c-1.8-4.52-5.53-6.98-9.79-6.98-3.51,0-6.28,2.06-6.28,5.53,0,3.91,4.44,5.49,7.95,6.89,4.48,1.71,9.79,3.69,9.79,8.96,0,6.02-5.53,9.35-10.58,9.35-4.52,0-8.61-1.45-10.85-3.12h.01Z"/>
    <path class="st1" d="M142.53,86.27v-15.06h-2.81v-.7l6.59-5.8h.7v5.8h6.81l-.18.7h-6.63v15.1c0,2.72,1.01,3.91,2.94,3.91.97,0,2.46-.39,3.91-2.2l.44.44c-2.33,2.68-4.57,4.44-7.2,4.44-2.99,0-4.57-1.89-4.57-6.63h0Z"/>
    <path class="st1" d="M157.15,84.69v-7.9c0-2.59-.66-3.03-1.76-3.51v-.61l5.8-2.55.44.35v13.66c0,4.7.75,7.03,4.13,7.03,1.98,0,4.13-1.19,6.28-3.34v-11.02c0-2.59-.66-3.03-1.76-3.51v-.61l5.8-2.55.44.35v16.42c0,3.16.31,4.48,1.76,4.96v.61h-4.48c-1.14,0-1.76-.61-1.76-1.76v-1.98c-2.5,2.41-5.53,4.17-8.3,4.17-4.65,0-6.59-2.85-6.59-8.21h0Z"/>
    <path class="st1" d="M180.55,82.32c0-6.72,4.61-12.08,12.25-12.08,1.84,0,3.38.44,4.7,1.1v-7.73c0-2.59-.66-3.03-1.76-3.51v-.61l5.8-2.55.44.35v29.6c0,3.16.31,4.48,1.76,4.96v.61h-4.48c-1.14,0-1.76-.61-1.76-1.76v-1.84c-1.67,1.93-4.3,4.22-7.6,4.13-5.58-.09-9.35-5.23-9.35-10.67ZM192.62,90.35c1.93,0,3.6-1.05,4.87-2.42v-9.7c0-3.25-2.85-7.07-6.54-7.07-4.83,0-6.1,4.13-6.1,7.6,0,4.17,1.45,11.59,7.77,11.59Z"/>
    <path class="st1" d="M206.04,91.84c1.45-.48,1.76-1.8,1.76-4.96v-10.1c0-2.59-.66-3.03-1.76-3.51v-.61l5.8-2.55.44.35v16.42c0,3.16.31,4.48,1.76,4.96v.61h-7.99v-.61h0ZM206.79,65.63c0-1.71,1.32-3.03,2.99-3.03,1.76,0,2.99,1.32,2.99,3.03s-1.32,2.99-2.99,2.99-2.99-1.32-2.99-2.99Z"/>
    <path class="st1" d="M216.26,82.05c0-7.11,5.71-11.86,11.72-11.86,5.45,0,11.68,3.21,11.68,10.93s-6.5,11.77-11.68,11.77c-5.71,0-11.72-3.38-11.72-10.85h0ZM235.23,84.47c0-5.58-3.82-13.96-9.48-13.39-3.82.39-5.09,3.91-5.09,7.68,0,5.18,3.07,13.17,8.87,13.17,4.3,0,5.71-3.73,5.71-7.47h-.01Z"/>
  </g>
  <path class="st0" d="M98.81,53.29c-3.11,24.78-25.71,45.95-50.5,47.28-24.78,1.33-44.87-18.76-44.87-44.87S26.05,8.41,53.94,8.41s47.98,20.09,44.87,44.87h0Z"/>
  <g>
    <path class="st2" d="M58.94,49.77c.22,2.86,1.12,5.59,3.06,7.61.82.85,1.86,1.4,2.97,1.32.93-.07,1.9-.63,2.62-1.42l5.8-6.39c2.53-2.79,9.8-7.3,5.92-11.39-2-2.11-4.12-4.24-6.51-5.96-1.72-1.24-3.35-2.26-4.78-3.86-.98-1.1-4.03-4.12-5.65-3.57-1.73.59-3.28,1.29-4.92,2.25,4.65,9.19.91,14.25,1.47,21.4h.02Z"/>
    <path class="st2" d="M73.96,53.83l-4.69,5.4c-1.24,1.43-2.92,2.45-4.91,2.24-2.06-.21-3.82-1.44-5.09-3.11-2.23-2.93-3-6.63-2.9-10.35.23-7.86,2.9-11.22-1.46-20.18l2.72-2.05c-8.85-.86-16.01-1.02-23.43,4.12-1.07.74-1.7,1.74-1.86,3.04-.45,3.76-4.18,4.58-7.39,5.4-3.73.95-7.35,1.76-11.08,3.22,1.24.18,2.47.05,3.64.62,1.55.75,2.21,2.42,1.29,4-.99,1.71-2.76,3.67-4.86,3.8-1.41.09-1.92-1.66-3.17-2.24.71,2.9,1.88,5.71,3.95,8.06.56-1.23-.35-2.08.01-3.39,2.44,2.04,5.1,3.7,8.13,4.8,5.55,2.01,9.99.56,15.28-1.24,1.38-.47,4.12-.95,4.54.62.43,1.61-3,3.03-5.09,3.24-3.28.33-6.51.4-9.84.22-3.66-.2-6.94-1.41-10.36-3.05,2.16,5.76,10.88,4.52,16.43,5.08,4.8.48,8.25,4,8.95,8.75.49,3.34-.05,6.58-1.08,9.75-.04-4.95-.56-10.38-4.15-14.26.64,4.12.31,7.89-1.04,11.64l-2.24,6.19,2.67-2.32c-.86,4.22-.17,8.16,1.67,12.05,2.96.61,6.03.94,9.18.94,16.11,0,30.23-8.48,38.16-21.2-6.69-6.14-8.92-10.97-12.01-19.78h.03ZM42.61,37.77c-1.57.58-3.3.03-4.88.09.64-1.27,1.28-2.25,2.09-3.3,2.04-2.65,5.56,1.61,6.3,3.47-1.4-.87-2.28-.71-3.5-.25h0ZM59.12,79.09c-5.33,4.03-9.34,9.26-11.45,15.7-.21-4.99,1.66-9.66,4.87-13.45,1.62-1.92,3.41-3.39,5.36-4.97,4.25-3.42,7.57-7.61,9.85-12.57-.77,6.56-3.48,11.39-8.63,15.29Z"/>
  </g>
  <path class="st2" d="M81.48,2.82c.01.2.03.39.05.59.78,8.04,1.74,8.39,3.58,10.38,1.99,1.84,2.34,2.8,10.38,3.58.19.01.39.03.59.05-.2.01-.39.03-.59.05-8.04.78-8.39,1.74-10.38,3.58-1.84,1.99-2.8,2.34-3.58,10.38-.01.19-.03.39-.05.59-.01-.2-.03-.39-.05-.59-.78-8.04-1.74-8.39-3.58-10.38-1.99-1.84-2.34-2.8-10.38-3.58-.19-.01-.39-.03-.59-.05.2-.01.39-.03.59-.05,8.04-.78,8.39-1.74,10.38-3.58,1.84-1.99,2.8-2.34,3.58-10.38.01-.19.03-.39.05-.59Z"/>
</svg>